<?xml version="1.0" encoding="utf-8"?>
<!-- Generator: Adobe Illustrator 25.4.1, SVG Export Plug-In . SVG Version: 6.00 Build 0)  -->
<svg version="1.1" id="Layer_1" xmlns="http://www.w3.org/2000/svg" xmlns:xlink="http://www.w3.org/1999/xlink" x="0px" y="0px"
	 viewBox="0 0 1000 1000" style="enable-background:new 0 0 1000 1000;" xml:space="preserve">
<style type="text/css">
	.st0{fill:#FFFFFF;}
</style>
<g>
	<path class="st0" d="M0,892.2c3.1-12.3,6.7-24.5,9.2-36.9C19.4,804.8,50,769.2,101.5,752c50.2-16.7,101.5-30.5,152.6-45
		c25.3-7.2,51.1-13,79.5-20.1c-11.6,91.1,41.5,155.2,92.6,219.4c15.3,19.2,37.5,33.5,56.4,50.2c11.3,10,22,9.7,34.3,0.5
		c75.1-55.8,123.7-127.8,148.5-213.7c4.6-15.8,0.7-33.8,0.7-52.2c3.5-0.5,7.4-2.2,10.5-1.4c74.4,21,149,41.3,222.8,63.8
		c63.6,19.3,86.8,67.7,96.1,124.7c1,6.2,3.1,12.2,4.6,18.4V1000H0V892.2z"/>
	<path class="st0" d="M548.4,0c40,13.1,82.2,22.4,119.7,40.2c68.8,32.6,117.5,84.6,129.8,157.4c7.2,42.7,3.4,87.3,2.5,131
		c-0.1,5.7-12.4,11.1-19.1,16.7c-5.4-5.9-14.9-11.4-15.5-17.6c-1.9-20.8-2.1-41.6-0.7-62.4c7.3-118.6-82.5-188-165.3-215.7
		c-113.2-37.8-236.6-8.2-314.8,73.7c-32.9,34.4-50,74.9-50,121.3c0,10.8,0.9,21.6,0,32.3c-1.9,22.1,1,42.4,22.1,56.5v-60.3
		c-0.2-103,47.6-165.7,151.8-197.6c90.2-27.6,175.3-16.4,253.9,33.3c49.7,31.5,74.2,77.9,78.5,132.5c2.5,31.9-1.4,64.4-3.2,96.5
		c-0.7,13.2-3.1,25.1,15,31.1c5.8,1.9,10.6,12.1,12,19.2c6.6,33.2-0.8,63.7-21.8,91.6c-10.9,14.5-20.8,29.7-29.6,45.6
		C685,577.4,652.9,627,599.9,660.8c-67.1,42.9-155.3,37.5-217.4-11.9c-44.8-35.7-74.9-81.2-99.2-130.2c-6.4-13-11.8-18.9-29.9-18
		c-14.3,0.7-34.3-7.6-43.3-18.2c-28.5-33.7-46.2-73-43.5-117c0.8-12.3,8-27,17.5-35.4c11.6-10.2,14.6-20,14.6-33.6
		c-0.1-32.2-4.4-65.6,2.6-96.6C223.8,99.2,297,42.2,398.5,13.1C418.8,7.3,440,4.3,460.8,0H548.4z M345.2,559.9
		c10.3,13.8,19.9,28.2,31.2,41.4c55.9,65.5,168,74.8,230.4,15.3c27.2-26,45-60.7,66.1-92.1c14.6-21.5,29.1-43.3,40.9-66.3
		c8.4-16.6,14.2-34.3,17.4-52.6c1.2-6.8-8.2-15.3-12.7-23c-6.8,4.5-15.3,7.8-20.2,13.8c-6.1,7.6-9.3,17.2-13.8,26
		c1.7-28.2,6.3-55.5,11.3-82.8c3.2-17.7-1.9-24.7-23.6-25.6c-99.5-4-192.2-26.1-265.8-94.8c-4.8-4.5-15.3-7.1-22.1-5.8
		c-44.9,9.2-93.2,67.3-82.6,108c8.5,32.7,10.7,66.8,16.6,106.7c-8.5-15.9-12.9-26.6-19.8-35.7c-3.6-4.7-11.8-6.4-17.9-9.4
		c-0.5,5.8-2.8,12-1.2,17.2c4.2,13.7,9.9,27,15.5,40.3c6.3,15,8.9,34.9,20.7,43.9c30.5,23.1,65,41.8,98.7,61
		c5.6,3.2,19.3,3,22.6-0.7c18.2-20.7,42.3-14,64.4-13.7c19.8,0.2,33.2,14.7,33.2,31.9c0,18.8-13,30.5-34.8,32.2
		C444.5,599.3,396.2,580.3,345.2,559.9L345.2,559.9z"/>
	<path class="st0" d="M506,718.2c16.6-2,36.3-0.8,51.1,17.3c8.6,10.5,13.4,19.9,0.6,29.4c-24.5,18.3-22,38.1-10.4,63.1
		c24.9,53.2,23.4,53.8-22.7,93.2c-23.9,20.4-23.9,20.4-49,1.5c-3-2.2-6.1-4.3-9-6.8c-36.5-29.5-37.8-34.7-20.2-76.4
		c1.7-4,3-8.1,5.2-11.8c12.7-21.5,17.6-41.3-8.1-59.1c-5.7-4-10.8-18.8-8-21.7c11.2-11.4,24.1-20.9,38.3-28.1
		C481.1,715.2,492.1,718.2,506,718.2z"/>
</g>
</svg>
