<?xml version="1.0" encoding="utf-8"?>
<!-- Generator: Adobe Illustrator 25.4.1, SVG Export Plug-In . SVG Version: 6.00 Build 0)  -->
<svg version="1.1" id="Layer_1" xmlns="http://www.w3.org/2000/svg" xmlns:xlink="http://www.w3.org/1999/xlink" x="0px" y="0px"
	 viewBox="0 0 1000 1000" style="enable-background:new 0 0 1000 1000;" xml:space="preserve">
<style type="text/css">
	.st0{fill:#010101;}
	.st1{fill:#FFFFFF;}
</style>
<path class="st0" d="M466.8,0h64.9c17.6,2.3,35.4,3.6,52.8,7c169,32.7,292.6,125.9,367.4,281.4c45.9,95.5,58.6,196.6,39.3,301.4
	c-16.5,89.6-54.5,168.9-114,237.8c-71.7,83-160.7,137.4-268.1,160c-27.5,5.8-55.8,8.4-83.7,12.5h-63c-17.6-2.2-35.5-3.4-52.8-6.9
	C257.9,962.5,142.7,879.4,65.5,745.3c-57.3-99.5-77-207.6-59-321.3c18.2-115,70.4-212.6,155.4-292.1
	C228.9,69.2,307.6,28.4,397.7,10.5C420.5,6,443.8,3.4,466.8,0z"/>
<path class="st0" d="M445.8,334.8v84.3c0,4.7-0.2,7.9-6,10.3c-3,1.3-3.7,9.7-4,14.9c-0.1,1.6,4.5,4.9,7,5.1
	c10.7,0.6,21.4,0.2,32.3,0.2c1.7-9,6.2-17.3-4.5-22.8c-1.3-0.6-1.8-3.7-1.8-5.6c-0.1-28.5-0.1-57-0.1-85.5c2.3,1.7,3.8,4.1,4.3,6.9
	c7,32.4,13.8,64.8,21.2,97.1c0.9,3.7,5.4,6.6,8.3,10c2.8-3.4,7.2-6.3,8.1-10.1c5.5-23.4,10.1-47,15.2-70.6
	c2.4-11.3,5.1-22.5,7.6-33.8c2.5,29.2,2.5,58.1,2.4,87c0,1.8-1,4.5-2.4,5.3c-10.8,5.7-4.5,14.1-5.3,22c15.2,0,28.8,0.4,42.3-0.2
	c4.5-0.2,12.2-2.2,12.6-4.5c1-5.7,5.4-14.4-5.8-16.9c-1.6-0.4-3.3-5-3.3-7.7c-0.3-25.9-0.3-51.8,0-77.7c0-2.5,0.8-6.9,2.2-7.3
	c13-4.1,6.9-13.4,6.9-22.3c-17.1,0-33.4,0.1-49.7,0c-15.7-0.1-15.9,0.2-18.3,15.8c-1.6,10.6-3.8,21.1-5.8,31.7l-2.8-0.2
	c-2.7-12.9-5.2-25.9-8.4-38.7c-0.8-3.1-3.8-8-5.9-8c-18.7-0.6-37.4-0.4-56.6-0.4C436.5,322.7,429.7,333.9,445.8,334.8z"/>
<path class="st0" d="M865.3,363.7l-2.3,0.3c-2.8-14.3-5.3-28.7-8.6-42.9c-0.7-3-3.7-7.8-5.7-7.9c-18.7-0.6-37.4-0.4-56.2-0.4
	c-1,10.8-4.8,21,9.3,22.5v92.2l-9.7,2.7c-1.3,19.4-1.3,19.4,17.2,19.1c4.5-0.1,9.1,0.3,13.6-0.1c3.4-0.4,9.4-1.3,9.7-2.8
	c0.9-5.2,1.8-13.9-0.9-15.6c-7.8-5-6.5-11.5-6.5-18.2v-77.9l2.9-0.4c1,3.4,2.3,6.8,3,10.3c6.5,31.4,12.7,62.9,19.6,94.2
	c0.9,4,5.8,7.1,8.8,10.7c2.7-3.5,6.8-6.6,7.7-10.5c6-25.8,11.2-51.8,16.8-77.6c1.3-6.3,3.1-12.6,4.6-18.9l3.5,0.3
	c0,26.6,0.1,53-0.2,79.6c0,2.3-4.3,4.2-5,6.8c-1.6,5.4-2.4,11-2.3,16.6c0,1.3,6,3.2,9.3,3.3c11.5,0.4,23.1-0.7,34.5,0.5
	c10.6,1.1,13.5-4.2,12.1-12.4c-0.8-4.5-5.5-8.3-8.4-12.4c-2.2-26.8-2.2-54.8-2-82.8c0-2.5,1.2-6.7,2.7-7.2c13.5-4.1,6-13.6,7-22.1
	c-20.2,0-39.4-0.4-58.5,0.4c-2.9,0.1-7.2,5.1-8,8.5C870.1,335.6,867.9,349.7,865.3,363.7z"/>
<path class="st0" d="M99.1,657.9c4.3,13.8,7.7,15.3,20.6,13.3c5.8-0.9,12.4,0.4,18,2.5c10.4,3.8,20,9.8,30.5,13.3
	s14.6,0.6,17.4-10.2c0.7-3,1.2-5.9,1.5-8.9l-40.3-15c6.8-4.3,11.8-7.3,16.8-10.5c11.3-7.2,19.5-17,23.6-29.8
	c8.5-26.9,8.6-54.1-2.1-80.1c-8.9-21.6-25.7-35.5-50.2-36.5c-23.8-0.9-41.3,10.9-51.1,31.7c-5.4,12.1-8.7,25-9.6,38.2
	c-2.9,34.9,5,65.5,39.1,83.4c0.3,0.2,0.3,1,0.5,1.5L99.1,657.9z"/>
<path class="st0" d="M318.7,649.2h61.7c-2.1-8.4-1.8-18.8-6-21c-6.8-3.6-6.5-7.6-5.4-12.4c1.3-5.8,2.5-14.4,6.4-16.2
	c13.3-6.3,24.7,1.3,26.4,15.9c0.4,3.1,0.5,6.1,0.8,9c-11,5-11,5-8.3,24.7h57.5c0.2-2.5,0.4-4.2,0.4-5.8V630
	c-11.1-4.5-11.2-4.5-13.5-16.4c-2.6-13.7-5-27.5-7.5-41.2c-3-16.6-6-33.1-9.2-50.3l11.1-1.7v-21.3c-6-0.5-11.4-1.2-16.9-1.3
	c-23,0-46.1,0-69.1,0.4c-3.3,0-9.3,2.6-9.4,4.4c-0.4,6.2-5,13.8,4.1,18.5c2.7,1.3,5.3,6.4,4.9,9.2c-5.2,31.6-11.1,63.1-16.7,94.4
	C317.2,628.6,317.2,628.6,318.7,649.2z"/>
<path class="st0" d="M318.2,498.2c-12.6,0-24.1-0.4-35.6,0.2c-3.6,0.2-9.7,2.6-10,4.7c-0.9,5.5,0.5,11.4,1.6,17.1
	c0.7,3.3,3.7,6.3,3.8,9.5c0.3,28,0,56,0.3,84c0.1,8.4-3,14.1-11,15c-9.3,1.1-12.8-5.4-13.7-13.6c-0.2-2.4-0.3-4.9-0.3-7.3
	c0.2-25.9,0.4-51.8,0.9-77.7c0.1-3.1,3.5-6,4.1-9.2c1.2-5.8,1.5-11.6,1-17.5c-0.3-2-4.8-5-7.4-5.1c-17.4-0.5-34.7-0.2-53.6-0.2v22.4
	l12.5,1.3c0.3,1.6,0.5,3.2,0.6,4.8c0,25.5-0.4,51-0.1,76.6c0.4,33.7,11.9,46.2,45,49.6c26.1,2.7,48.6-13.8,49.2-37
	c0.8-27.3,1.1-54.6,0.2-81.9c-0.3-9.9,1.5-14.6,12.6-13.3L318.2,498.2z"/>
<path class="st0" d="M305,448.3c0.8-8.1,4.6-16.6-5-22.6c-1.8-1.1-2.1-5-2.9-7.7c-2.4-9.1-4.3-18.4-7.1-27.3
	c-2.2-6.9-0.8-11.8,4.5-16.8c3.4-3.4,5.8-7.6,6.8-12.3c5.4-26.3-12-47.7-39.5-48.5c-17.4-0.5-34.9-0.5-52.4-0.2
	c-4.1,0.1-8.2,2.1-12.3,3.2c1.7,5.4,3.3,10.8,5.2,16.1c1.2,3.3,4.2,6.3,4.2,9.5c0.4,25.9,0.4,51.8,0,77.7c-0.4,3.7-2.5,7.1-5.6,9.1
	c-7.8,4.4-3.4,10.8-2.9,15.9c0.2,1.9,5.9,4.7,9.2,4.9c11.2,0.6,22.3,0.6,33.5,0c4.4-0.2,12.4-2.2,12.4-3.4c0-6.2,6.6-15-5.1-18.4
	c-1.7-0.5-3-5.1-3.2-8c-0.6-7.3-0.5-14.7,0.1-22c0.3-3,3.1-5.7,4.9-8.6c2.6,2.2,6.6,4,7.5,6.8c2.9,8.2,4.5,16.8,6.6,25.2
	c7.7,29.7,8.2,30.1,39.1,28.2C303.4,449.3,303.7,449,305,448.3z"/>
<path class="st0" d="M850.1,625.7c-1.9,0.2-3.5,0.5-5.1,0.6c-11.2,1-7.5,9.7-8.1,16c-0.7,8,5,7.8,10.5,7.9c16.4,0,32.7,0.2,49.1-0.1
	c4.4-0.1,11.2,1,10.2-6.7c-0.7-5.8,5.2-14.6-6.7-16.7c-2.9-0.5-6.8-5.6-7.1-8.9c-1.5-15.4,1.6-30.9,9-44.5
	c6.8-13,13.7-25.9,19.9-39.1c3.8-8,7.5-15.1,18.3-13.6c0.2-3.2,0.4-5.5,0.5-8c0.2-14-0.2-14.5-14.6-14.8c-8.4-0.1-16.7,0-25.2,0
	c-18.3,0-18.7,0.5-16.9,18.9c0.3,1.4,0.7,2.8,1.2,4.1l13.3,1l-21.1,43.6l-20-43.8l14.1-1.2c0.2-3.9,0-7,0.5-10
	c1.6-10.4-3-13.3-12.9-12.8c-14.3,0.8-28.6,0-42.9,0.3c-4.8,0-11.8-2.1-11.2,6.5c0.5,6.4-5.4,16.4,8.4,17c2.7,0.1,5.8,4.5,7.3,7.6
	c6.6,13,11.7,27,19.4,39.4C850.8,586.6,851.8,605.5,850.1,625.7z"/>
<path class="st0" d="M770.5,629.6c-4.5-4.8-14.7,0.7-14.4-10.7c0.6-23.1-0.1-46.2,0.1-69.3c0.1-9.2,1.2-18.4,1.9-28.4l13.1,0.7v31.9
	H798c0-15.1-0.3-29.4,0.1-43.6c0.3-9.3-3.8-12.4-12.5-12.4c-19.5,0.2-39.1,0-58.7,0h-51.9c0,17.5-1.4,34.3,0.5,50.7
	c1.3,11.1,12.5,5.2,19.3,6c6.5,0.8,6.7-4.4,6.6-9.2c-0.1-7.9,0-15.8,0-23.3c11.8-2.7,14.6,2.3,14.4,11.7
	c-0.3,25.9-0.4,51.8,0.2,77.6c0.2,10.6-0.2,19.1-14.4,17c-0.1,2.7-0.2,4.4-0.3,6.1c-0.6,15.9,0,16.1,16.2,15.4
	c13.9-0.7,27.9-0.1,41.9-0.2c3.6,0,7.2-0.4,10.9-0.7L770.5,629.6z"/>
<path class="st0" d="M535.6,521.2v-23.3h-55.4c-21.4,0-21.4-0.1-19.3,21.5c0,0.3,0.4,0.5,1.1,1.4c13.4-2.8,13.3,5.8,13.1,16
	c-0.4,26.6-0.1,53.1-0.2,79.7c0,3.7-0.6,7.4-1,10.8c-14.2,1.3-15,3-11.9,22.8c35.9,0,72,0.2,108.2-0.3c2.5,0,6.9-5,7-7.8
	c0.7-17.1,0.8-34.2,0.1-51.3c-0.1-3-4.7-7.3-8.1-8.4c-4.7-1.4-9.7-1.3-14.4,0.3c-3.4,1.2-6.7,5.2-8.3,8.7c-1.4,3.3-0.5,7.6-0.5,11.4
	c0.3,25.6,0.3,25.6-25.4,24.2c-0.6,0-1.2-0.6-2.7-1.5V521.2H535.6z"/>
<path class="st0" d="M315.6,428.4c0,5.6-1,10.1,0.3,13.7c1,3,4.8,7.1,7.3,7.2c30.1,0.5,60.1,0.5,90.1,0c2.6,0,7.1-3.9,7.3-6.1
	c0.7-12.4,0.3-25,0.3-38c-6.4-0.5-11.6-0.8-16.8-1.3c-8-0.8-12.2,2.2-11.1,10.6s-0.3,14.4-11,14.1c-13.7-0.3-15.5-1.6-15.6-14.4
	c0-5.6-0.8-11.3,0.1-16.7c0.5-2.8,3.8-6.9,6.2-7.2c15.9-2.1,16.6-2.9,13.1-20.3c-2.7-0.2-5.3-0.2-8,0c-10.2,1.5-13.1-3.9-12.6-12.8
	c0.4-7.3,0.8-14.5,1.3-22.9h27c0,4.7,0.4,8.2-0.1,11.7c-1.3,9.3,3.2,12,11.6,11c2.1-0.2,4.2-0.2,6.3,0c7.1,0.6,10.2-2.4,9.8-9.8
	c-0.5-7.7-0.5-15.4,0-23.1c0.7-8.5-2.1-11.7-11-11.5c-27.9,0.5-55.9,0.2-83.8,0.2c-3.3,0-6.6,0.5-10,0.7c-0.4,4.9-1.5,8.9-0.8,12.5
	c0.5,2.8,3.1,7.3,4.8,7.3c9.3,0.2,8.5,6.3,8.5,12.3c0,23.5-0.3,46.9,0.1,70.3C329,424.8,327.5,430.6,315.6,428.4z"/>
<path class="st0" d="M122.4,400.7c12.4-2.2,22.8-3.3,32.7-6.1c14.3-4.2,24.3-13.3,26.8-29c4-25.8-8.3-46.1-34.1-49.9
	c-23.9-3.5-48.4-2.8-73.4-4c-0.6,7.3-2.1,12.6-1.1,17.5c0.5,2.3,6.3,3.1,8.8,5.4c1.8,2,2.7,4.6,2.7,7.3c0.2,25.9,0.3,51.8-0.2,77.6
	c0,3-3.3,8-6,8.6c-10.4,2.7-4.6,10.4-4.9,15.6c-0.1,1.7,5.6,5.5,8.7,5.6c13.6,0.5,27.2,0.2,40.8,0c4.7-0.1,11.9,2.9,12-5.5
	c0.1-6.1,4.6-16-8.6-15.7c-1.4,0-4.1-3-4.2-4.7C122.2,415.5,122.4,407.7,122.4,400.7z"/>
<path class="st0" d="M740.5,312.9c-3.5,9.1-4.7,16.6,3.3,22.8c1.5,1.1,1.7,4.5,1.7,6.8c0.1,24.1,0.1,48.2-0.1,72.4
	c0,8-2.2,15.4-11.8,15.2c-9.8-0.2-11-7.8-11-15.8c0.1-23.4,0-46.9,0.1-70.3c0-3,0-7.3,1.8-8.7c8.3-6.6,4.5-14.2,3.6-22.6
	c-16.3,0-32-0.3-47.6,0.3c-2.7,0.1-7.6,3.7-7.5,5.6c0.1,5.1-4.4,13.3,4.7,14.7c7.7,1.2,7.3,5.8,7.3,11.2c-0.1,23.4-0.1,46.9,0,70.3
	c0.1,14.8,5.4,27.6,20.2,32.1c10.3,3.2,22.1,4.7,32.7,3.3c21.7-2.9,31.1-15.5,31.2-37.4c0.1-23.1-0.2-46.2,0.2-69.2
	c0-3.3,2.8-8.9,5-9.3c7.5-1.3,10.4-6.2,8.3-11.6c-1.6-4.1-7.2-8.8-11.6-9.3C761.1,312,750.8,312.9,740.5,312.9z"/>
<path class="st0" d="M589.7,520.6l15.7,1.3v96.2c0,6-2.2,9.4-8.6,9c-7-0.5-8.8,2.8-8.6,9.5c0.4,13.3,1.3,14.2,14.1,13.5
	c10.4-0.6,20.9-0.5,31.3-0.6c10-0.1,20,0,30.9,0c0-6.5,0.6-12-0.3-17.3c-0.3-2.1-4.2-5.6-5.9-5.3c-10.9,2.2-11.3-4.5-11.2-12.1
	c0-27.6-0.1-55.2-0.1-82.8c0-3,0.5-6,0.7-9.3c2.4-0.3,4.1-1,5.7-0.8c7.9,0.9,12.8-1.2,12.4-10.5s-3.3-14.2-13.7-13.7
	c-15.3,0.7-30.7,0.3-46,0.4c-19.3,0-19.3,0-17.5,19.1C589,518.3,589.3,519.5,589.7,520.6z"/>
<path class="st0" d="M691.1,821.9c-0.2,0.5-0.4,1.1-0.7,1.7c-11.1-2.3-22.2-4.7-33.3-7c-8.5-1.8-10.9,0.6-9.2,9.1
	c2.6,12.6,11.4,19.8,22.2,24.7c21.5,9.6,44.3,12,67.4,10.5c16-1,32.2-2.9,49-12.8c-15.9-13.5-29.9-26.4-45.1-37.9
	c-18.7-14.2-39.9-23.4-63.8-21.8c-7.6,0.5-15.6,5.1-21.9,9.8c-5.7,4.2-4.5,9.4,3.2,12.1C669.9,813.7,680.5,817.9,691.1,821.9z"/>
<path class="st0" d="M356.6,149.6c-28.4,10.4-54.2,21.4-74.2,41.5c-10.3,10.3-17.8,23.8-25.1,36.7c-2.7,4.9-2,12.3-1.1,18.3
	c0.5,3.6,3.7,8.6,6.8,9.6c2.3,0.8,6.9-3.3,9.6-6c4.9-4.9,9.2-10.5,13.9-15.6c1.3-1.3,3.3-2,5-2.9c-4.5,8.9-9.9,17.4-16,25.2
	c-5.8,7.6-1.6,10.7,5.2,12.2c11.6,2.7,21-2.3,29.5-9.8C342.7,230.4,349.8,191.4,356.6,149.6z"/>
<path class="st0" d="M414.8,772.2l1.7-1.1c6.1,9,12.4,17.8,18.3,27c4.2,6.5,8,5.6,12,0.1c5.8-7.9,6.7-16.6,4.2-25.9
	c-7.2-27-24-47-45.8-63.1c-12.4-9.1-25.7-17.1-38.6-25.5l-2.9,2.1c0.8,13.8,1,27.6,2.6,41.3c3.3,28.5,10.3,56,33,75.8
	c5.5,4.8,13.9,7.8,21.4,8.7c9.9,1.1,11.5-2.7,7.2-11.8S419.2,781.4,414.8,772.2z"/>
<path class="st0" d="M874.3,771.9c-23.8-13.8-47.4-24.7-73-27.6c-16.2-1.8-33.2,0.6-49.3,4c-6.9,1.4-13.4,9.3-17.9,15.8
	c-4,5.7-2.1,11.4,7.1,11c9.9-0.4,19.9-0.1,29.8-0.1v3.1c-8.4,1.1-16.9,1.8-25.2,3.3c-4.3,0.8-8.5,2.9-12.7,4.5
	c2.2,4.6,3.6,9.9,6.8,13.5c3.2,3.6,7.5,6.2,12.3,7.2c10.6,1.8,21.4,3.3,32,2.8C818,807.6,845.5,790.3,874.3,771.9z"/>
<path class="st0" d="M138.4,772.1c16.9,9.3,31.7,18.1,47.2,25.7c21.4,10.4,44.3,15.2,67.9,10.6c8.2-1.6,16-7.2,23.1-12.3
	c2.6-1.8,3.8-7.7,3-11.2c-0.4-1.8-6.3-2.9-9.8-3.5c-8.8-1.4-17.7-2.4-26.5-3.5l0.3-3c10,0,20.1-0.2,30.1,0c8.3,0.2,9.5-3.7,6.7-10.6
	c-4.3-10.9-13-15.9-23.6-18.6C214.1,735.3,177.3,752.2,138.4,772.1z"/>
<path class="st0" d="M228.1,849.8c36.1,11,70.8,16.4,106,4.9c13.2-4.3,24.3-12.3,30.5-25.2c1.6-3.7,1.5-7.9-0.1-11.7
	c-0.8-1.6-6.8-1.5-10.2-0.9c-10.4,1.9-20.6,4.4-30.9,6.6c10-5.5,20.5-10.1,31.4-13.6c8.5-2.8,8.4-6.8,3.1-12.8
	c-10-11.1-22.9-10.8-35.8-8.7C282.7,795.3,255.4,820.8,228.1,849.8z"/>
<path class="st0" d="M657,149.6c2.7,13.9,4.5,24.8,7.1,35.5c6.4,26.8,15.7,52.6,37,71.1c7.8,6.8,19.3,9.6,29.6,13
	c2.7,0.9,7.6-2.7,10-5.6c1-1.1-1.7-6-3.5-8.7c-4.8-7.3-10-14.4-15.1-21.6l2.7-2c6.7,7.3,13.4,14.6,20.1,21.8c5.2,5.5,8.7,4,11.6-2.5
	c5.5-12.2,2.3-23.2-4-33.8C731.2,180.9,696.6,164.2,657,149.6z"/>
<path class="st0" d="M596.3,853.4c-0.5,0.8-1.1,1.6-1.6,2.5c-8.2-3.6-16.5-6.9-24.6-10.8c-9-4.3-10.5-3.4-11.2,6.9
	c-0.8,11.3,4.8,19.3,12.8,26.1c33.3,28.5,73.5,30,114.6,29.4c0-1.2-0.2-2.5-0.6-3.6c-12.7-23.5-28.3-45-48.8-62.1
	c-14.2-11.9-30.3-21.4-50.1-20.6c-8.8,0.4-16,3.5-19.6,13L596.3,853.4z"/>
<path class="st0" d="M598.7,769.1l2.1,1.3c-5.3,10.2-10.3,20.6-16,30.5c-4.5,7.9-0.6,9.8,6.2,10.7c11.5,1.5,20.1-3.6,27.5-11.8
	c17.7-19.4,25.6-43,28.4-68.5c1.7-15.3,2.1-30.8,3.2-48.3c-24.3,12.8-44.9,25.6-60.6,44c-10.4,12.2-18.6,27-24.9,41.8
	c-3.1,7.3-1.6,17.9,1,26c3.3,10.2,8.2,10.2,14.4,1.7C586.5,787.5,592.5,778.2,598.7,769.1z"/>
<path class="st0" d="M325.7,908.8c20.3-1.3,37.4-1.7,54.4-3.8c23.6-3,45.3-11,63.1-27.5c8-7.4,13.3-15.9,11.8-27.6
	c-1-7.6-3.6-8.6-10.2-5c-8.5,4.6-17.6,8.3-26.5,12.3l-1.5-2.9c8-5.2,15.8-10.8,24.1-15.5c7.7-4.3,6.2-8.2,0.6-12.5
	c-8.6-6.6-18.3-6.1-28-3.6c-17.7,4.5-31.7,14.9-44.8,27.5C351.6,866.4,338.4,885.2,325.7,908.8z"/>
<path class="st0" d="M663.9,429.5c-16.3-2-16.6-2.4-16.5-18.5c0.1-14,0-27.9,0-41.9v-34.5c4.2-0.3,6.9-0.5,9.6-0.5
	c10.9-0.2,6.2-8.9,7.3-14.1c1.2-5.5-2.2-7.3-7.3-7.3c-18.1,0.1-36.3-0.2-54.3,0.4c-2.3,0.1-6.2,4.9-6.3,7.6
	c-0.2,4.6-4.1,13.1,5.2,12.9c9.8-0.2,9.7,5.1,9.6,12c-0.1,22.4-0.4,44.7,0.1,67.1c0.2,10.2,0.2,19-14.7,15.5v21.3
	c21,0,41.2,0.2,61.3-0.2c2,0,5.2-3.4,5.6-5.7C664.5,439.3,663.9,434.7,663.9,429.5z"/>
<path class="st0" d="M211.4,155.7c-14.4,24.1-25.9,47.1-31.1,72.6c-3.6,17.3-4,34.6,2.5,51.6c2.4,6.3,6,9.2,12.7,7.5
	s14.5-1.6,13.9-12c-0.3-5.2,0.5-10.4,0.8-15.6c3.2,6.6,3.7,13.2,5.1,19.5c0.5,2.7,2.2,6.1,4.4,7.1c10.2,4.8,20,0.1,22.7-10.9
	c1.3-5.8,2.2-11.6,2.6-17.6C247.6,220.1,230.2,188.7,211.4,155.7z"/>
<path class="st0" d="M800.1,256.4h4.2V273c0,7.9,2.3,13.6,11.7,13.9c8.8,0.3,16.7-0.9,17.2-11.8c0.7-15.6,2.4-31.5,0.2-46.7
	c-3.7-26-16.6-48.7-31.6-71.2c-10.1,18.7-19,38.1-26.8,57.9c-7.8,20-8.7,42.1-2.7,62.7c3.1,10.9,11.2,10.1,19.1,9.9
	c8.5-0.1,8.2-7.3,8.6-13.1C800.4,268.5,800.1,262.4,800.1,256.4z"/>
<path class="st0" d="M941.8,675.7l-0.5-3.5c-7.5,0-15-0.4-22.5,0.1c-5.1,0.4-10.1,3.1-15.1,3.2c-22.3,0.3-44.6,0.8-66.9-0.1
	c-21.6-0.8-35.5,12.5-30.9,33.2l42.4-8.4c-11,5.3-22.3,9.9-33.8,13.7c-7.3,2.5-8.3,7.5-3.1,11.4c6.3,4.7,14.3,9.7,21.7,9.9
	C881,736.9,911,705.5,941.8,675.7z"/>
<path class="st0" d="M325.1,762.4c12.6-0.6,20.8-9.3,22.1-23.6c1.8-19.2-1.2-37.8-10.2-54.8c-1.9-3.7-7.4-6.1-11.8-7.6
	c-7.1-2.5-14.8-3-21.9-5.6c-8.5-3.1-21.4,1.6-23,10c-4.8,24.7-3.4,48.9,9.6,71c3.2,5.5,9.6,10,15.6,12.7c8.9,4,11.3,1.8,10.5-8
	c-1-12.2-2.3-24.5-3.5-36.7l1.1-0.2L325.1,762.4z"/>
<path class="st0" d="M699.6,721l2,0.3c-1.4,12.1-2.8,24.1-4.2,36.2c-0.8,6.9,1.5,9.6,9,8c9.8-2.2,15.9-8.4,20-16.8
	c10-20.2,10.2-41.8,8.3-63.5c-0.5-6-3.8-8.7-10.4-9.1c-12.3-0.7-24.6-2.8-37-3.7c-2.2-0.2-5.7,2.3-6.8,4.5
	c-9.3,17.1-15.2,35.3-14.2,55c0.6,10.8,1.8,21.8,12.3,28.6c6.6,4.3,10.6,3.5,12.5-5C693.6,743.8,696.8,732.4,699.6,721z"/>
<path class="st0" d="M176.3,296.3c1.4-8.9-26.1-45.8-44.3-56.9c-3,13.1-6.3,25.8-8.6,38.7c-0.4,2.5,2.4,7.7,4.5,8.2
	C144,290.1,160.2,293.1,176.3,296.3z"/>
<path class="st0" d="M841.2,283.3c0.5,1.1,1,2.2,1.6,3.3c14.7,0,29.5,0.1,44.2-0.2c1.3,0,4-2.9,3.8-4c-2.7-14.6-5.7-29.1-8.6-43.6
	l-3.8-0.2L841.2,283.3z"/>
<path class="st0" d="M271.7,285.7v3.6c9.6,1.1,19.3,3.3,29,3c9.3-0.3,18.6-3.9,27.8-4.8c8.8-0.9,17.6-0.2,26.5-0.2
	C327.2,280.5,299.5,277.5,271.7,285.7z"/>
<path class="st0" d="M666.4,285.8h69.2v-2.7C712.6,279.1,689,280,666.4,285.8z"/>
<path class="st1" d="M445.4,336.7c-16.1-0.9-9.4-12-10.1-21.9c19.2,0,37.9-0.3,56.6,0.4c2.1,0.1,5.1,4.9,5.9,8
	c3.2,12.8,5.6,25.8,8.4,38.7l2.8,0.2c2-10.6,4.1-21.1,5.8-31.7c2.4-15.6,2.7-15.9,18.3-15.8c16.3,0.1,32.7,0,49.7,0
	c0,8.9,6.2,18.1-6.9,22.3c-1.4,0.5-2.2,4.8-2.3,7.3c-0.2,25.9-0.2,51.8,0,77.7c0,2.6,1.6,7.4,3.3,7.7c11.2,2.6,6.9,11.2,5.8,16.9
	c-0.4,2.2-8.2,4.3-12.6,4.5c-13.6,0.6-27.2,0.2-42.3,0.2c0.9-8-5.4-16.3,5.3-22c1.3-0.7,2.4-3.4,2.4-5.2c0.1-28.9,0.1-57.7-2.4-87
	c-2.5,11.3-5.2,22.5-7.6,33.8c-5,23.5-9.7,47.1-15.1,70.6c-0.9,3.8-5.3,6.8-8.1,10.1c-2.9-3.3-7.4-6.2-8.3-10
	c-7.5-32.3-14.2-64.7-21.2-97c-0.5-2.8-2-5.2-4.3-6.9c0,28.5,0,57,0.1,85.5c0,1.9,0.5,4.9,1.8,5.6c10.6,5.5,6.3,13.8,4.5,22.8
	c-10.9,0-21.6,0.3-32.3-0.2c-2.6-0.1-7.1-3.4-7-5.1c0.3-5.2,1-13.6,4-14.9c5.9-2.5,6-5.6,6-10.3
	C445.4,393.4,445.4,365.8,445.4,336.7z"/>
<path class="st1" d="M864.9,365.7c2.7-14,4.8-28.1,8.1-42c0.8-3.4,5.1-8.4,8-8.5c19.1-0.8,38.3-0.4,58.5-0.4c-1,8.5,6.5,18-7,22.1
	c-1.5,0.5-2.7,4.7-2.7,7.2c-0.2,28-0.1,56,2,82.8c2.9,4.1,7.6,8,8.4,12.4c1.4,8.2-1.5,13.6-12.1,12.4c-11.4-1.2-23-0.1-34.5-0.5
	c-3.3-0.1-9.3-2-9.3-3.3c-0.1-5.6,0.7-11.2,2.3-16.6c0.7-2.5,5-4.5,5-6.8c0.4-26.6,0.2-53,0.2-79.6l-3.6-0.3
	c-1.5,6.3-3.3,12.6-4.6,18.9c-5.6,25.9-10.8,51.8-16.8,77.6c-0.9,3.9-5,7-7.7,10.5c-3.1-3.5-8-6.6-8.9-10.7
	c-7-31.3-13.1-62.8-19.6-94.2c-0.7-3.5-2-6.9-3-10.3l-2.9,0.4v77.8c0,6.8-1.3,13.3,6.5,18.2c2.7,1.7,1.8,10.4,0.9,15.6
	c-0.2,1.5-6.2,2.4-9.7,2.8c-4.5,0.5-9.1,0.1-13.6,0.1c-18.6,0.3-18.6,0.3-17.2-19.1l9.7-2.7v-92.2c-14.2-1.5-10.3-11.8-9.3-22.5
	c18.8,0,37.5-0.2,56.2,0.4c2,0.1,5,4.8,5.7,7.9c3.2,14.2,5.8,28.6,8.5,42.9L864.9,365.7z"/>
<path class="st1" d="M98.7,659.8l14.8-7.1c-0.1-0.5-0.2-1.3-0.5-1.5c-34.2-17.8-42-48.5-39.1-83.4c1-13.2,4.2-26.1,9.6-38.2
	c9.8-20.9,27.3-32.6,51.1-31.7c24.4,0.9,41.2,14.8,50.1,36.5c10.7,26,10.6,53.1,2.1,80.1c-4,12.8-12.3,22.6-23.6,29.8
	c-4.9,3.2-9.9,6.2-16.8,10.5l40.3,15.1c-0.3,3-0.8,6-1.5,8.9c-2.9,10.7-6.9,13.7-17.4,10.2s-20.1-9.5-30.5-13.3
	c-5.6-2.1-12.2-3.4-18-2.5C106.4,675.1,103,673.7,98.7,659.8z M148,574.4c-0.9-11.5-1.3-24.4-2.9-37.2c-0.8-7-3.5-14.2-12.6-13.8
	c-8.9,0.3-11.7,6.9-11.8,14.4c-0.3,25.7-0.2,51.4-0.2,77.1c0,8,3.5,13.6,12.2,13.8s12.2-5.6,12.8-13.4
	C146.5,602.2,147.2,589,148,574.4z"/>
<path class="st1" d="M318.4,651.2c-1.5-20.7-1.5-20.7,11.3-24.3c5.6-31.3,11.5-62.8,16.7-94.4c0.5-2.8-2.3-7.8-4.9-9.2
	c-9.1-4.8-4.5-12.3-4.1-18.5c0.1-1.7,6-4.3,9.4-4.4c23-0.5,46.1-0.5,69.1-0.4c5.5,0,10.9,0.8,16.9,1.3v21.3l-11.1,1.7
	c3.1,17.3,6.2,33.7,9.2,50.3c2.5,13.7,5,27.5,7.5,41.2c2.2,12,2.3,12,13.5,16.4v13.3c0,1.7-0.2,3.3-0.4,5.8h-57.5
	c-2.6-19.6-2.6-19.6,8.3-24.7c-0.2-2.9-0.4-5.9-0.8-9c-1.7-14.6-13.1-22.3-26.4-16c-3.9,1.9-5.1,10.5-6.4,16.2
	c-1.1,4.8-1.3,8.8,5.4,12.4c4.1,2.2,3.9,12.7,6,21L318.4,651.2z M373.3,581.2c4.6,0.6,7,1,9.3,1.2c12.4,1.1,14.3-0.9,12.5-12.9
	c-2.1-14.1-4-28.2-6.3-42.2c-0.5-2.9-2-5.7-3-8.5l-3.1,0.4C379.6,539.5,376.5,559.9,373.3,581.2L373.3,581.2z"/>
<path class="st1" d="M317.8,500.1v22.5c-11.1-1.3-12.9,3.4-12.6,13.3c0.9,27.3,0.5,54.6-0.2,81.9c-0.6,23.2-23.1,39.6-49.2,37
	c-33.1-3.4-44.6-15.8-44.9-49.6c-0.3-25.5,0.1-51,0.1-76.6c-0.1-1.6-0.3-3.2-0.6-4.8l-12.5-1.3v-22.4c18.9,0,36.2-0.2,53.6,0.2
	c2.6,0,7.2,3,7.4,5.1c0.5,5.9,0.2,11.7-1,17.5c-0.5,3.2-4,6.1-4.1,9.2c-0.6,25.9-0.7,51.8-0.9,77.7c-0.1,2.5,0,4.9,0.3,7.3
	c0.9,8.2,4.5,14.6,13.7,13.6c8-1,11.1-6.6,11-15c-0.3-28,0-56-0.3-84c0-3.2-3.1-6.2-3.8-9.5c-1.1-5.6-2.5-11.6-1.6-17
	c0.4-2.1,6.4-4.5,10-4.7C293.7,499.8,305.2,500.1,317.8,500.1z"/>
<path class="st1" d="M304.6,450.3c-1.3,0.7-1.6,1-1.9,1c-30.9,1.9-31.4,1.6-39.1-28.2c-2.2-8.4-3.8-17.1-6.6-25.2
	c-1-2.8-5-4.6-7.6-6.8c-1.7,2.8-4.6,5.6-4.9,8.6c-0.6,7.3-0.6,14.7-0.1,22c0.2,2.8,1.4,7.5,3.2,8c11.7,3.4,5.1,12.2,5.1,18.4
	c0,1.2-8,3.2-12.4,3.4c-11.2,0.5-22.4,0.6-33.5,0c-3.3-0.2-9-3-9.2-4.9c-0.4-5.1-4.8-11.6,2.9-15.9c3.1-2.1,5.2-5.4,5.6-9.1
	c0.4-25.9,0.4-51.8,0.1-77.7c0-3.2-3-6.2-4.2-9.5c-1.9-5.3-3.5-10.8-5.3-16.2c4.1-1.1,8.2-3.1,12.3-3.2c17.4-0.3,34.9-0.4,52.4,0.2
	c27.4,0.8,44.9,22.2,39.5,48.6c-1,4.7-3.4,9-6.9,12.3c-5.3,5-6.7,9.9-4.5,16.8c2.8,9,4.7,18.2,7.1,27.3c0.7,2.6,1,6.5,2.9,7.7
	C309.2,433.7,305.4,442.2,304.6,450.3z M243.7,370.8c8.9,1.7,15.5,1.3,19.2-6.6c4.1-8.8,3.1-22.1-3.1-26.4
	c-3.4-2.3-8.3-2.8-12.6-3.2c-1-0.1-3.3,3.4-3.4,5.3C243.6,349.9,243.7,360,243.7,370.8L243.7,370.8z"/>
<path class="st1" d="M849.7,627.7c1.7-20.2,0.8-39.1-10.2-56.9c-7.7-12.4-12.8-26.3-19.4-39.4c-1.6-3.1-4.7-7.5-7.3-7.6
	c-13.8-0.7-8-10.6-8.4-17.1c-0.6-8.7,6.4-6.4,11.2-6.5c14.3-0.2,28.7,0.5,42.9-0.2c9.9-0.5,14.5,2.4,12.9,12.8
	c-0.5,3-0.3,6.2-0.5,10.1l-14.1,1.2c6.6,14.2,12.8,27.9,20.2,43.7L898,524l-13.2-1c-0.5-1.3-0.9-2.7-1.2-4.1
	c-1.8-18.5-1.3-18.9,16.9-18.9c8.4,0,16.8-0.1,25.2,0c14.4,0.2,14.8,0.7,14.6,14.8c0,2.4-0.3,4.8-0.5,8
	c-10.9-1.5-14.6,5.6-18.3,13.5c-6.2,13.3-13.1,26.2-19.9,39.1c-7.4,13.6-10.5,29.1-9,44.5c0.3,3.3,4.2,8.3,7.1,8.9
	c11.9,2.1,6,10.9,6.6,16.7c1,7.7-5.8,6.7-10.2,6.7c-16.3,0.3-32.7,0.1-49,0.1c-5.4,0-11.2,0.1-10.5-7.9c0.6-6.3-3.1-15,8.1-16
	C846.2,628.2,847.8,627.9,849.7,627.7z"/>
<path class="st1" d="M770.1,631.6v19.3c-3.7,0.2-7.3,0.7-10.9,0.7c-14,0.1-27.9-0.4-41.9,0.2c-16.2,0.7-16.8,0.6-16.2-15.4
	c0-1.7,0.2-3.4,0.3-6.1c14.1,2.1,14.6-6.3,14.4-17c-0.6-25.9-0.5-51.8-0.2-77.6c0.1-9.4-2.7-14.2-14.5-11.7v23.3
	c0,4.8-0.2,10-6.7,9.2c-6.8-0.8-18,5-19.3-6c-1.9-16.4-0.5-33.2-0.5-50.7h51.9c19.5,0,39.1,0.2,58.7,0c8.7-0.1,12.8,3.1,12.5,12.4
	c-0.5,14.3-0.1,28.6-0.1,43.6h-26.8v-31.9l-13.2-0.7c-0.7,10-1.8,19.2-1.8,28.4c-0.2,23.1,0.5,46.2-0.1,69.3
	C755.4,632.3,765.6,626.8,770.1,631.6z"/>
<path class="st1" d="M535.2,523.2h-17.5v104.2c1.5,0.9,2.1,1.5,2.7,1.5c25.7,1.3,25.7,1.3,25.4-24.2c0-3.8-0.9-8.2,0.5-11.4
	c1.5-3.5,4.8-7.5,8.3-8.7c4.7-1.6,9.7-1.7,14.4-0.3c3.4,1.1,8,5.3,8.1,8.4c0.7,17,0.6,34.2-0.1,51.3c-0.1,2.8-4.5,7.7-7,7.8
	c-36.2,0.5-72.3,0.3-108.2,0.3c-3.2-19.9-2.3-21.5,11.9-22.8c0.3-3.5,1-7.2,1-10.8c0.1-26.6-0.2-53.1,0.2-79.7
	c0.2-10.1,0.2-18.7-13.2-16c-0.7-0.9-1.1-1.2-1.1-1.4c-2.1-21.5-2.1-21.5,19.3-21.5h55.4L535.2,523.2z"/>
<path class="st1" d="M315.2,430.4c11.8,2.2,13.4-3.6,13.2-12.4c-0.4-23.4-0.2-46.9-0.1-70.3c0-6.1,0.7-12.2-8.5-12.3
	c-1.7,0-4.3-4.6-4.8-7.3c-0.6-3.6,0.4-7.6,0.8-12.5c3.3-0.2,6.6-0.7,10-0.7c27.9,0,55.9,0.3,83.8-0.2c8.9-0.2,11.7,3,11,11.5
	c-0.5,7.7-0.5,15.4,0,23.1c0.4,7.4-2.6,10.4-9.8,9.8c-2.1-0.2-4.2-0.2-6.3,0c-8.3,1-12.8-1.7-11.6-11c0.5-3.4,0.1-6.9,0.1-11.7h-27
	c-0.5,8.3-0.9,15.6-1.3,22.9c-0.5,8.9,2.5,14.3,12.6,12.8c2.7-0.2,5.3-0.2,8,0c3.6,17.5,2.8,18.2-13.1,20.3
	c-2.5,0.3-5.8,4.5-6.3,7.2c-1,5.4-0.2,11.1-0.1,16.7c0.1,12.9,1.9,14.1,15.6,14.4c10.8,0.2,12.2-5.5,11-14.1s3.1-11.5,11.1-10.6
	c5.1,0.5,10.3,0.8,16.8,1.3c0,13.1,0.4,25.6-0.4,38c-0.1,2.3-4.7,6.1-7.3,6.1c-30,0.4-60.1,0.4-90.1,0c-2.6,0-6.3-4.2-7.3-7.2
	C314.3,440.4,315.2,436,315.2,430.4z"/>
<path class="st1" d="M122,402.7c0,7-0.2,14.9,0.2,22.7c0.1,1.7,2.8,4.7,4.2,4.7c13.3-0.3,8.7,9.6,8.6,15.7c-0.1,8.4-7.3,5.4-12,5.5
	c-13.6,0.3-27.2,0.6-40.8,0c-3.1-0.1-8.8-3.8-8.7-5.6c0.4-5.2-5.5-12.9,4.9-15.6c2.7-0.7,6-5.6,6-8.6c0.5-25.9,0.3-51.8,0.2-77.6
	c0-2.7-1-5.3-2.7-7.3c-2.5-2.4-8.3-3.1-8.8-5.4c-1.1-4.8,0.4-10.2,1-17.5c25,1.2,49.5,0.4,73.4,4c25.8,3.8,38.1,24.1,34.1,49.9
	c-2.4,15.6-12.4,24.8-26.8,29C144.8,399.4,134.3,400.4,122,402.7z M120.9,358.1c0,4.2-0.1,8.4,0,12.6c0.2,9.5,4.9,12.1,13.2,7.2
	c8.6-5.1,8.4-13.6,8.5-22.1c0-7.9-2.1-14.5-9.5-18.4s-11.8-1.5-12.1,7.1C120.7,349,120.9,353.6,120.9,358.1L120.9,358.1z"/>
<path class="st1" d="M589.3,522.5c-0.4-1.2-0.7-2.3-0.9-3.5c-1.8-19.1-1.8-19.1,17.5-19.1c15.3,0,30.7,0.4,46-0.4
	c10.4-0.5,13.3,4.7,13.7,13.7c0.4,9.1-4.5,11.3-12.4,10.5c-1.6-0.2-3.3,0.4-5.7,0.8c-0.3,3.3-0.7,6.3-0.7,9.3
	c0,27.6,0.1,55.2,0.1,82.8c0,7.6,0.3,14.3,11.2,12.1c1.6-0.3,5.5,3.2,5.9,5.3c0.9,5.3,0.3,10.9,0.3,17.3c-11,0-21-0.1-31,0
	c-10.5,0.1-20.9,0-31.3,0.6c-12.8,0.7-13.8-0.3-14.1-13.5c-0.2-6.7,1.6-10,8.6-9.5c6.4,0.5,8.6-3,8.5-9c-0.1-31.8,0-63.5,0-96.2
	L589.3,522.5z"/>
<path class="st1" d="M690.7,823.9c-10.6-4-21.2-8.2-32-11.8c-7.7-2.7-8.9-7.9-3.2-12.1c6.3-4.7,14.3-9.3,21.9-9.8
	c23.9-1.6,45.2,7.6,63.8,21.8c15.1,11.5,29.2,24.5,45.1,37.9c-16.9,9.9-33.1,11.8-49,12.8c-23.1,1.5-46-0.9-67.4-10.5
	c-10.8-4.8-19.7-12.1-22.2-24.7c-1.7-8.5,0.7-10.8,9.2-9.1c11.1,2.3,22.2,4.7,33.3,7C690.3,825,690.5,824.4,690.7,823.9z"/>
<path class="st1" d="M356.2,151.6c-6.8,41.8-13.9,80.9-46.4,109.2c-8.6,7.5-17.9,12.4-29.5,9.8c-6.8-1.5-11-4.7-5.2-12.2
	c6.1-7.9,11.5-16.3,16-25.2c-1.7,0.9-3.8,1.5-5,2.9c-4.8,5.1-9,10.7-14,15.6c-2.7,2.7-7.3,6.8-9.6,6c-3.1-1-6.2-6-6.8-9.6
	c-0.9-6-1.6-13.4,1.1-18.3c7.2-12.9,14.8-26.4,25.1-36.7C301.9,173,327.8,162,356.2,151.6z"/>
<path class="st1" d="M414.4,774.2c4.4,9.2,8.8,18.3,13.2,27.6s2.7,12.9-7.2,11.8c-7.4-0.8-15.8-3.8-21.4-8.7
	c-22.7-19.8-29.7-47.3-33-75.8c-1.6-13.7-1.8-27.5-2.6-41.3l2.9-2.1c12.9,8.5,26.2,16.4,38.6,25.5c21.9,16.1,38.7,36.1,45.8,63.1
	c2.5,9.3,1.6,18-4.2,25.9c-4,5.5-7.8,6.5-12-0.1c-5.9-9.1-12.1-18-18.2-27L414.4,774.2z"/>
<path class="st1" d="M873.9,773.9c-28.8,18.3-56.3,35.7-90,37.5c-10.6,0.6-21.5-1-32-2.8c-4.8-1-9.1-3.6-12.3-7.2
	c-3.2-3.6-4.6-9-6.8-13.5c4.2-1.5,8.3-3.7,12.7-4.5c8.3-1.5,16.8-2.3,25.2-3.3v-3c-10,0-19.9-0.3-29.8,0.1c-9.3,0.4-11.1-5.3-7.2-11
	c4.5-6.5,11-14.3,17.9-15.7c16.1-3.4,33.1-5.8,49.3-4C826.5,749.2,850.2,760.1,873.9,773.9z"/>
<path class="st1" d="M138,774.1c38.9-19.9,75.6-36.8,118.5-26.2c10.6,2.7,19.3,7.7,23.6,18.6c2.7,6.9,1.6,10.8-6.8,10.6
	c-10-0.2-20,0-30.1,0c-0.1,1-0.2,2-0.3,3c8.9,1.1,17.7,2.1,26.5,3.5c3.5,0.6,9.5,1.7,9.8,3.5c0.7,3.5-0.5,9.3-3,11.2
	c-7.1,5.1-14.9,10.7-23.1,12.3c-23.6,4.6-46.5-0.2-67.9-10.6C169.8,792.2,154.9,783.3,138,774.1z"/>
<path class="st1" d="M227.6,851.8c27.4-29,54.7-54.5,94.1-61.2c12.9-2.2,25.8-2.5,35.8,8.7c5.3,5.9,5.4,9.9-3.1,12.8
	c-10.9,3.5-21.4,8-31.4,13.6c10.3-2.3,20.6-4.8,30.9-6.6c3.4-0.6,9.4-0.7,10.2,0.9c1.6,3.7,1.6,7.9,0.1,11.7
	c-6.2,12.9-17.4,21-30.5,25.2C298.5,868.2,263.7,862.9,227.6,851.8z"/>
<path class="st1" d="M656.5,151.6c39.7,14.6,74.2,31.3,95.5,67.1c6.3,10.6,9.4,21.6,4,33.8c-2.9,6.5-6.4,8-11.6,2.5
	c-6.7-7.2-13.4-14.5-20.1-21.8l-2.7,2c5,7.2,10.3,14.3,15.1,21.6c1.8,2.7,4.5,7.6,3.5,8.7c-2.4,2.8-7.4,6.4-10,5.6
	c-10.3-3.3-21.8-6.2-29.6-13c-21.3-18.5-30.6-44.3-37-71.1C661.1,176.3,659.3,165.4,656.5,151.6z"/>
<path class="st1" d="M595.9,855.4c-9.5-6.3-19-12.6-29.1-19.2c3.7-9.5,10.8-12.7,19.6-13c19.8-0.8,35.9,8.7,50.1,20.6
	c20.5,17.1,36.1,38.5,48.8,62.1c0.4,1.2,0.6,2.4,0.6,3.6c-41.2,0.6-81.3-0.9-114.6-29.4c-8-6.9-13.6-14.8-12.8-26.1
	c0.7-10.2,2.2-11.1,11.2-6.8c8.1,3.9,16.4,7.2,24.6,10.8L595.9,855.4z"/>
<path class="st1" d="M598.3,771.1c-6.2,9.1-12.1,18.3-18.6,27.2c-6.3,8.6-11.2,8.5-14.4-1.7c-2.7-8.1-4.1-18.6-1-26
	c6.3-14.8,14.5-29.6,24.9-41.8c15.7-18.3,36.3-31.2,60.6-44c-1.1,17.6-1.5,33.1-3.2,48.4c-2.8,25.5-10.7,49-28.4,68.5
	c-7.5,8.2-16,13.4-27.5,11.8c-6.8-0.9-10.7-2.8-6.2-10.7c5.7-10,10.7-20.4,16-30.5L598.3,771.1z"/>
<path class="st1" d="M325.3,910.7c12.7-23.5,25.9-42.3,42.9-58.7c13.1-12.6,27.1-22.9,44.8-27.5c9.7-2.5,19.4-3,28,3.6
	c5.6,4.3,7.1,8.2-0.6,12.5c-8.3,4.7-16.1,10.3-24.1,15.5l1.5,2.9c8.9-4.1,17.9-7.7,26.5-12.3c6.6-3.6,9.3-2.5,10.2,5
	c1.5,11.7-3.7,20.2-11.8,27.6c-17.8,16.6-39.6,24.6-63.1,27.5C362.7,909,345.6,909.4,325.3,910.7z"/>
<path class="st1" d="M663.5,431.6c0,5.1,0.7,9.8-0.2,14c-0.5,2.3-3.6,5.6-5.6,5.7c-20.1,0.4-40.3,0.2-61.3,0.2v-21.3
	c14.9,3.5,14.9-5.3,14.7-15.5c-0.5-22.4-0.2-44.7-0.1-67.1c0-6.8,0.1-12.1-9.6-12c-9.3,0.2-5.3-8.3-5.2-12.9c0.1-2.7,4-7.5,6.2-7.6
	c18.1-0.6,36.3-0.3,54.3-0.4c5.1,0,8.5,1.8,7.3,7.3c-1.2,5.2,3.5,13.9-7.4,14.1c-2.7,0-5.5,0.3-9.6,0.5v76.5
	C646.8,429.1,647.1,429.5,663.5,431.6z"/>
<path class="st1" d="M211,157.7c18.8,33,36.3,64.4,33.4,102.4c-0.3,5.9-1.2,11.8-2.6,17.6c-2.7,11-12.6,15.7-22.7,10.9
	c-2.1-1-3.9-4.5-4.4-7.1c-1.3-6.4-1.8-12.9-5-19.5c-0.3,5.2-1,10.4-0.8,15.6c0.5,10.4-7.4,10.3-14,12s-10.3-1.3-12.7-7.5
	c-6.4-17-6-34.3-2.5-51.6C185.1,204.8,196.6,181.8,211,157.7z"/>
<path class="st1" d="M941.4,677.7c-30.7,29.8-60.8,61.1-108.7,59.4c-7.4-0.3-15.4-5.3-21.7-10c-5.2-3.8-4.2-8.9,3.1-11.3
	c11.6-3.8,22.9-8.4,33.8-13.7l-42.4,8.4c-4.6-20.6,9.3-34,31-33.2c22.3,0.8,44.6,0.4,66.9,0.1c5.1-0.1,10-2.8,15.1-3.1
	c7.5-0.6,15-0.2,22.5-0.2L941.4,677.7z"/>
<path class="st1" d="M324.8,764.4c-3.8-14.1-7.6-28.4-11.5-42.7l-1.1,0.2c1.2,12.2,2.5,24.5,3.5,36.7c0.8,9.8-1.7,12-10.6,8
	c-6-2.7-12.4-7.2-15.6-12.7c-13-22.1-14.3-46.3-9.6-71c1.6-8.4,14.5-13.1,23-10c7,2.6,14.8,3.1,21.9,5.6c4.4,1.5,9.9,4,11.8,7.6
	c9,17,12.1,35.6,10.2,54.8C345.5,755.1,337.4,763.8,324.8,764.4z"/>
<path class="st1" d="M699.2,723c-2.8,11.4-6,22.8-8.4,34.2c-1.8,8.5-5.8,9.3-12.5,5c-10.5-6.8-11.8-17.8-12.3-28.6
	c-1.1-19.7,4.9-37.9,14.2-55c1.2-2.2,4.6-4.6,6.8-4.5c12.3,0.9,24.6,3.1,37,3.7c6.6,0.3,9.9,3,10.4,9.1c1.9,21.8,1.7,43.3-8.3,63.5
	c-4.2,8.5-10.2,14.6-20,16.8c-7.4,1.6-9.8-1-9-8c1.4-12.1,2.8-24.2,4.2-36.2L699.2,723z"/>
<path class="st1" d="M175.9,298.3c-16.1-3.2-32.3-6.1-48.3-10c-2.2-0.5-5-5.7-4.6-8.2c2.3-12.9,5.6-25.6,8.6-38.7
	C149.8,252.5,177.3,289.4,175.9,298.3z"/>
<path class="st1" d="M840.8,285.3l37-44.8l3.8,0.2c3,14.5,6,29,8.7,43.6c0.2,1.1-2.4,4-3.8,4c-14.7,0.3-29.5,0.2-44.2,0.2
	L840.8,285.3z"/>
<path class="st1" d="M271.3,287.7c27.7-8.2,55.5-5.2,83.3,1.6c-8.8,0-17.8-0.7-26.5,0.2c-9.4,0.9-18.6,4.5-27.8,4.8
	c-9.6,0.3-19.3-1.9-29-3L271.3,287.7z"/>
<path class="st1" d="M666,287.8c22.6-5.8,46.2-6.7,69.2-2.7v2.7H666z"/>
<path class="st0" d="M148,574.4c-0.9,14.6-1.5,27.8-2.5,41c-0.6,7.8-4,13.6-12.8,13.4s-12.2-5.8-12.2-13.8c0-25.7-0.2-51.4,0.2-77.1
	c0.1-7.5,3-14.1,11.8-14.4c9.1-0.4,11.8,6.8,12.6,13.8C146.7,550,147.2,562.9,148,574.4z"/>
<path class="st0" d="M373.3,581.2c3.2-21.2,6.3-41.7,9.4-62.1l3.1-0.4c1,2.8,2.5,5.6,3,8.5c2.2,14.1,4.2,28.2,6.3,42.2
	c1.8,12,0,14-12.5,12.9C380.2,582.3,377.8,581.9,373.3,581.2z"/>
<path class="st0" d="M243.8,370.8c0-10.8-0.2-20.8,0.2-30.9c0.1-1.9,2.4-5.3,3.4-5.3c4.3,0.4,9.2,0.9,12.6,3.2
	c6.2,4.3,7.2,17.6,3.1,26.4C259.2,372.1,252.6,372.5,243.8,370.8z"/>
<path class="st0" d="M120.9,358.1c0-4.5-0.1-9.1,0-13.6c0.3-8.6,4.5-11.1,12.1-7.1c7.6,3.9,9.6,10.5,9.5,18.4c0,8.5,0.2,17-8.5,22.1
	c-8.2,4.9-13,2.3-13.2-7.2C120.8,366.5,120.9,362.3,120.9,358.1z"/>
<path class="st1" d="M783.1,315.4v19.8c-10-1.2-11.7,3-11.4,11.7c0.8,24,0.5,48.1-0.2,72.1c-0.6,20.5-20.9,35-44.5,32.7
	c-30-3-40.4-14-40.7-43.7c-0.2-22.5,0.1-45,0.1-67.5c-0.1-1.4-0.3-2.9-0.6-4.3l-11.3-1.2v-19.7c17.1,0,32.8-0.2,48.5,0.2
	c2.4,0,6.5,2.7,6.7,4.5c0.5,5.2,0.2,10.4-0.9,15.4c-0.5,2.8-3.6,5.3-3.7,8.1c-0.5,22.8-0.7,45.6-0.9,68.5c-0.1,2.2,0,4.3,0.2,6.5
	c0.9,7.2,4,12.9,12.4,12c7.3-0.9,10.1-5.9,10-13.3c-0.3-24.7,0-49.4-0.3-74.1c0-2.8-2.8-5.5-3.4-8.4c-1-5-2.2-10.2-1.4-15
	c0.3-1.9,5.8-4,9-4.1C761.3,315,771.7,315.4,783.1,315.4z"/>
<path class="st1" d="M800,155.7c18.8,33,36.3,64.4,33.5,102.4c-0.4,5.9-1.2,11.8-2.5,17.6c-2.8,11-12.6,15.8-22.8,10.9
	c-2.2-1-3.8-4.5-4.4-7.1c-1.3-6.4-1.8-12.9-5-19.5c-0.3,5.2-1,10.4-0.8,15.6c0.5,10.4-7.4,10.3-14,12s-10.3-1.3-12.7-7.5
	c-6.4-17-6-34.3-2.5-51.6C774.1,202.8,785.6,179.8,800,155.7z"/>
</svg>
