<?xml version="1.0" encoding="utf-8"?>
<!-- Generator: Adobe Illustrator 25.4.1, SVG Export Plug-In . SVG Version: 6.00 Build 0)  -->
<svg version="1.1" id="Layer_1" xmlns="http://www.w3.org/2000/svg" xmlns:xlink="http://www.w3.org/1999/xlink" x="0px" y="0px"
	 viewBox="0 0 1000 1000" style="enable-background:new 0 0 1000 1000;" xml:space="preserve">
<style type="text/css">
	.st0{fill:#FFFFFF;}
</style>
<g>
	<path class="st0" d="M818.9,216.8c3.5,8.8,2.8,17.9,2.8,27c0,184-0.2,368,0.3,552c0.1,20-13.1,33.5-35.2,32.5
		c-22.9-0.9-46-0.2-69-0.1c-6.6,0-9.7-2.1-13.8-8c-10.5-15.3,1.2-26.8,4.4-39.7c0.9-3.7,4.8-2.4,7.5-2.4c14.2-0.1,28.3-0.4,42.4,0
		c7.3,0.2,10-2.3,9.9-9.1c-0.3-17.1-0.1-34.2-0.1-51.2c0-152.3,0-304.7,0.1-457c0-7.7-3.3-9.2-10.4-9.2
		c-47.2,0.2-94.3,0.2-141.5,0.2c-12.2,0-23.1-2.3-29.8-13.3c-2.8-4.6-2.8-9.5-2.9-14.4c-0.2-41.8-0.2-83.7-0.2-125.6
		c0-11.4,0.1-11.4-12.4-11.4c-51,0-102-0.1-153-0.2c-59.8,0-119.7,0.1-179.5-0.1c-5.8,0-7.3,1.9-7.2,6.6c0.1,8,0.1,16,0.1,24v647.9
		c0,12.8,0,12.7,13.5,12.7c60.4-0.1,120.9-0.2,181.3-0.3c7.2,0,14.3-0.4,14.6,9.3c0,2,1.1,4.5,2.6,6c10.1,10.5,2.9,20.3-1.2,30.1
		c-2.3,5.5-7.6,5-12.7,5c-48.3-0.1-96.7-0.1-145-0.1c-25.1,0-50.1,0.1-75.2,0c-19.9,0-31.3-11.1-31.3-29.7
		c0-241.8,0-483.7-0.2-725.5c0-21.9,6.3-34.7,31.1-37.2l2.3,0c3.1,1.3,6.3,1.3,9.3,0c3.5,0.3,7,0.8,10.5,0.8
		c120.2,0.1,240.4,0.1,360.7,0c4.3,0,8.9,0.9,13-1.2c11.3,1.7,21.7,4.9,29.7,13.4c3.7,4,7.6,8.3,13.5,10l-0.1-0.1
		c7.8,10.4,17.8,18.8,28.6,26.4l-0.1-0.1c8.3,9.9,18,18.5,28.6,26.3l0,0c8.1,9.6,18.2,17.2,28.1,25l0-0.1l85,77.8L818.9,216.8z
		 M680.4,201.3v-0.1c12.1,0,24.1,0,36.2,0c2.2,0,5.2,1.2,6.3-1.4c1.1-2.7-2.3-3.7-3.7-5c-24.9-22.5-49.9-44.9-75.1-67.2
		c-1.4-1.2-2.3-3.7-4.8-2.9c-2.6,0.8-1.7,3.3-1.7,5c-0.1,22,0.2,44-0.1,66c-0.1,5,1.9,5.9,6.7,5.8
		C656.3,201.1,668.3,201.3,680.4,201.3z"/>
	<path class="st0" d="M540.4,943.8c-2.2,4.1-1.1,8.6-1.5,13c-0.7,8.1-4.8,10.2-12.1,5.8c-10.3-6.2-20.9-12-30.3-19.1
		c-7-5.3-13.3-4.6-20.6-2c-19.7,7.3-39.5,14.6-59.2,21.8c-2.7,1-6.2,2-8.2-0.4c-2.6-3.1-0.8-7.1,0.6-10.2
		c6.1-13.8,12.8-27.4,19-41.2c13.6-30,27.3-59.9,40.5-90.1c2.8-6.4,6-9.8,13.3-6.1c7.7,4,16,3.5,24.1,2.8
		c13.4-1.2,23.8,3.8,34.8,10.5c11.2,6.8,14.1,13.6,10.2,25.5c-2.7,8.5-1.8,17.9-2.5,27c-0.2,1.1-0.4,2.2-0.6,3.3
		c-1.6,15.4-5.7,30.7-5.2,46.3l-0.2,2.9c-0.9,2.2-1.9,4.4-1.1,6.8C540.9,941.6,540.6,942.7,540.4,943.8z"/>
	<path class="st0" d="M595.5,851.4c-2.5-11.2,3.4-17.6,13.2-23.5c9.9-6,19.4-10.6,31.6-9.6c10.2,0.8,20.6,0.6,30.3-3.6
		c3.8-1.6,5.1-0.8,6.7,3.1c7.9,18.4,16.4,36.5,24.8,54.7c0.6,1.5,1.9,2.7,2.9,4c-0.2,0.5-0.1,0.9,0.3,1.3c0,0.8-0.2,1.7,0.1,2.5
		c11.2,24.5,22.5,48.9,33.8,73.3c1.5,3.1,2.9,6.7,0.4,9.2c-2.5,2.5-6.6,1.2-9.9-0.1c-20-7.3-40.1-14.5-60.1-22
		c-6.6-2.5-11.8-1.6-17.6,2.3c-10.1,6.9-20.7,13-31.1,19.4c-6.3,3.8-10.5,2.5-11.2-3.6c-2.5-21.3-5-42.5-7.5-63.8
		c-0.4-3.8-1-7.7-3-11.1c-0.1-0.9-0.1-1.9-0.2-2.8c-0.1-9.1,0.6-18.3-3.4-27.1C595.6,853.2,595.5,852.3,595.5,851.4z"/>
	<path class="st0" d="M510,547.4c12.7,2.1,25-3.4,36.8-12.2c19.2-14.4,32.5-16.4,53.2-0.5c12.8,9.9,26.4,14.1,42.7,12.8
		c7.4-0.6,14.9-1.1,22.3,2.9c10,5.5,16.4,13.2,18.6,23.5c3.3,14.9,10.6,26.7,24.9,34.7c21.4,12,27.6,24.4,17.2,49.2
		c-6.5,15.5-3.7,29.3,2,43.6c5.3,13.5,3.6,29.6-10.2,37.2c-20.5,11.2-30.7,27.6-37,47.9c-3.8,12.2-15.8,18.7-29.5,19.1
		c-10.8,0.3-21.6-1.6-32.3,2.2c-7.6,2.7-13.9,7.1-19.7,11.7c-15.8,12.5-35,12.3-50.8-0.5c-10.8-8.9-23.2-14.9-38.8-13.7
		c-33.3,2.5-40.2-8.2-47.8-32.8c-3.4-11.1-9.2-19.8-19.6-26c-24.1-14.4-30.6-23.5-19.5-52.7c5.3-13.9,3.2-26.3-1.8-39.1
		c-7.6-19.4-2.7-33.9,16.2-44.7c13.9-7.9,21.6-19.3,26.8-33.6C473.2,550.7,479.2,547.4,510,547.4z M574.6,785.5
		c62.9,1.4,115.9-48.9,116.4-107.6c0.5-62.5-53.4-110.1-116-111c-63.6-0.9-118.6,49.6-118.2,110.4
		C457.3,737.1,511,787.4,574.6,785.5z"/>
	<path class="st0" d="M500.4,371.6c-57.5,0-114.9,0-172.4,0c-18,0-33.4-12.1-29.9-31.1c1.4-7.6,10-16.9,18.1-18
		c5.5-0.8,11.1-1.4,16.7-1.4c111.7-0.1,223.3-0.1,335,0c11,0,21.9,0.5,29.1,10c6.1,8,7,16.7,2.7,25.6c-5,10.5-14.7,14.7-26.2,14.8
		c-30.6,0.3-61.3,0.1-91.9,0.1L500.4,371.6z"/>
	<path class="st0" d="M501.7,446.2c57.2,0,114.3,0,171.5,0c19.8,0,30.7,11.8,28.4,30.2c-1,7.9-9.5,16.7-17.8,18.2
		c-6.4,1.2-12.8,1.8-19.3,1.9c-105.5-0.1-211-0.1-316.5,0c-10.3,0-20.5,0.9-30.8-1.5c-11.5-2.7-19.1-10.9-19.5-22.8
		c-0.4-12.4,6.6-21,18.5-24.5c10-2.9,19.9-1.4,29.8-1.4C398,446.2,449.9,446.2,501.7,446.2L501.7,446.2z"/>
	<path class="st0" d="M378.5,570.9c17.9,0,35.9,0,53.8,0c5.8,0,8.2,0.9,4.7,7c-2.7,4.7-5.5,9-10.7,11.2c-12.9,5.5-21.4,15-27.3,26.4
		c-2.5,4.8-5.5,5.6-10.2,5.6c-20.6-0.1-41.2-0.2-61.8-0.1c-18.1,0.1-28.3-8.4-29.3-23.5c-1-15.5,11.9-26.2,28.6-26.6
		C343.8,570.5,361.2,570.8,378.5,570.9L378.5,570.9z"/>
	<path class="st0" d="M497.4,666c13.9,1.6,26.8,6.8,37.8,15.6c5.5,4.4,10.7,9.5,15.5,15.3c4.4,5.4,6.2,3.7,9.7-0.8
		c17.7-23.4,38.5-43.9,65-58.7c4.9-2.8,10.5-4.6,15.8-6.8c1.9-0.8,4.5-1.2,5.9,0.2c2.1,2.1-1.1,3.7-2.1,4.6
		c-18.6,16.1-34.1,34.6-48,54.3c-9.4,13.3-17.6,27.3-26,41.2c-8.1,13.4-15.2,14.4-24.9,2.2c-6.4-8-11.9-16.6-17.6-25
		c-9-13.2-21-23.7-34.7-32.6c-2.9-1.9-8.3-4-7.2-7.4C487.8,664.3,493.2,667.1,497.4,666z"/>
</g>
</svg>
