<?xml version="1.0" encoding="utf-8"?>
<!-- Generator: Adobe Illustrator 25.4.1, SVG Export Plug-In . SVG Version: 6.00 Build 0)  -->
<svg version="1.1" id="Layer_1" xmlns="http://www.w3.org/2000/svg" xmlns:xlink="http://www.w3.org/1999/xlink" x="0px" y="0px"
	 viewBox="0 0 1000 1000" style="enable-background:new 0 0 1000 1000;" xml:space="preserve">
<style type="text/css">
	.st0{fill:#FFFFFF;}
</style>
<g>
	<path class="st0" d="M987,447.5c-15.3,12.6-30.1,26.1-46,37.6c-9.2,6.7-20.1,10.3-31.9,16.1c-8.2-15.2-17.1-29.4-24-44.9
		c-35.3-79.2-70.3-158.5-104.9-238c-13.4-30.7-10.6-40.8,14.7-57.9c51.5-34.9,55.7-33.4,82.6,27.6c31,70.2,62.1,140.5,93.1,210.7
		c5.9,13.3,10.8,27,16.2,40.6L987,447.5z"/>
	<path class="st0" d="M474.3,866c-33.8-21.1-37.5-40.9-12.9-76.9c10.1-14.8,21.9-27.9,33.2-41.5s23.8-15.6,37.5-5
		c14.1,10.9,21,29.6,15.6,47.5c-10.6,35-32.6,58.3-59.4,76H474.3z"/>
	<path class="st0" d="M753.4,217.3c13.9,30.2,27.1,58.9,40.1,87.7c24.1,53,48.3,105.9,71.9,159.2c12.6,28.6,10.6,43.4-7.9,66.6
		c-25.3,31.7-51.1,62.9-78,95.9c-32.9-41.8-63.3-80.2-93.5-118.8c-44.9-57.3-89.6-114.9-134.5-172.1c-22.9-29.2-26-29.6-56.6-11.1
		c-36.2,21.8-72.1,44.2-108.4,65.7c-11.3,6.7-23.4,11.6-35.3,17c-13.3,6.1-25.6,3.4-34.9-9.3c-9.8-13.3-13.7-29.6-6.6-45.6
		c4.9-11,12-22.2,20.6-29.1c57.9-46.8,116.8-92,174.7-138.8c38.8-31.4,77.8-31.2,118.1-5.9c11.2,7.1,22.7,14.3,32.7,23.4
		C685.6,228.9,716.9,240.7,753.4,217.3z"/>
	<path class="st0" d="M194.9,174.5c-4.5,17.4-7.2,30-11.1,42.1c-25.2,79.8-50.6,159.6-76.1,239.3c-0.8,2.5-1.7,5-2.7,7.5
		C91,501,83.7,504.5,52.1,489.2c-44.5-21.5-45.9-24.5-29.5-76.6c25.9-81.7,52-163.4,78.4-244.9c11.5-35.6,18.9-39.4,50.2-28
		c9.4,3.4,19.5,6,27.4,12.3C185.7,157.7,190.3,167.8,194.9,174.5z"/>
	<path class="st0" d="M458.3,191.2c-36-9.4-63.2,2.9-89.6,20.5c-10.4,6.8-21.3,13.2-32.7,19.1c-26.3,14-52.9,15.5-78.7-1
		c-12.7-8.1-19.9-5.4-25.1,10.7c-23.4,72.7-47.6,145.1-70.6,218c-5.8,18.4-2.4,36,10.3,50.8c11.1,13,21.5,26.9,31.6,41
		c4.4,6.2,8.7,13.3,10.7,20.8c1.7,6.4,0.1,14.1,0,21.3c-5.9-0.7-13,0.7-17.4-2.7c-8.7-6.5-16.7-14.9-23.4-24.1
		c-12.6-17-23.1-36.1-36.1-52.5c-15-18.8-14.7-38.1-7.5-60.3c26.8-82.1,53-164.5,79.8-246.6c12-36.9,24.9-41.5,52.1-18.1
		c23.1,19.9,45.1,16.4,70.1,3.6c32.2-16.4,65.9-29,99.5-41.2c8.6-3.1,20.1-1.1,28.6,3.3c6.2,3.2,13.4,14.6,12.9,21.5
		C472.1,181.8,462.1,187.4,458.3,191.2z"/>
	<path class="st0" d="M792.7,637.8c10.4,48-3.9,73.9-42,81.1c-17.6,3.3-31.9,12.2-41.7,30c-14.4,26.3-33.3,40.8-61.3,36.2
		c-4.2-0.7-11.2,7.1-14.1,12.8c-21.2,41.4-45.8,52-85.4,32c11.5-9,20.7-18.1,31.1-24.1c28.3-16.3,33.9-39.7,14.5-68.8
		c-12.6-18.8-27.3-35.6-39.4-54.7c-8.2-13.1-14.3-26.9-18-41.1c-3.9-15.2,4.7-23.3,16.5-15.5c9.3,6.1,17.1,16,24.4,25.5
		c19,24.9,36.9,51,56.1,75.7c16.8,21.6,32,24.2,45.2,10.2c12.9-13.7,13.5-37.1-0.4-57.2c-19.8-28.6-40.8-56-61.3-84
		c-3.4-4.6-8.6-9.4-9.1-14.5c-0.9-9.4,1.1-19.1,2-28.7c6.8,2.1,15.5,1.8,20.1,6.8c17.1,18.4,32.9,38.4,48.9,58.2
		c13.6,16.8,26.4,34.6,40.3,51.1c18.1,21.4,27.1,21.1,45.4,0.4C773.2,659.3,782,649.7,792.7,637.8z"/>
	<path class="st0" d="M463.6,643.9c18.4,0.2,28.4,10.8,35.3,26.1c6.6,14.8,5.3,30.3-4.6,41.7c-26.9,31-54.3,61.4-82.5,90.7
		c-12.2,12.7-26.8,9.2-40.3-6c-15.9-17.8-22.6-39.3-11.7-51.9c29.3-33.8,60.5-65,91.5-96.7C454.7,644.4,461,644.7,463.6,643.9z"/>
	<path class="st0" d="M421.6,634.4c-2,4.4-4.2,14.4-9.6,20.6c-22.6,26.4-45.7,52.2-69.3,77.2c-11.3,11.9-24.2,7.4-35.3-1.5
		c-10.8-8.7-18.3-37-12.9-50c17.2-41.8,46.2-69.9,81.5-88C394.9,583.1,421.1,606.3,421.6,634.4z"/>
	<path class="st0" d="M259.7,582.9c19.2-0.1,36.9,20.9,36.5,43.2c-0.5,26.9-27.9,58.1-50.7,57.7c-18.6-0.3-32.6-19.8-32.2-44.8
		C213.6,610.7,236.5,583.1,259.7,582.9z"/>
</g>
</svg>
