<svg id="Layer_1" data-name="Layer 1" xmlns="http://www.w3.org/2000/svg" viewBox="0 0 260 260"><defs><style>.cls-1{fill:#050706;}.cls-2{fill:#fdfdfd;}.cls-3{fill:#fcfcfc;}.cls-4{fill:#080a09;}.cls-5{fill:#060707;}.cls-6{fill:#fafbfb;}.cls-7{fill:#000100;}.cls-8{fill:#000201;}.cls-9{fill:#f1f2f2;}.cls-10{fill:#020303;}.cls-11{fill:#050606;}.cls-12{fill:#eff0f0;}.cls-13{fill:#010101;}.cls-14{fill:#010201;}.cls-15{fill:#dedfdf;}.cls-16{fill:#020403;}.cls-17{fill:#f3f4f4;}.cls-18{fill:#010202;}.cls-19{fill:#cbcccc;}.cls-20{fill:#b8bab9;}.cls-21{fill:#0d0d0d;}.cls-22{fill:#0c0d0c;}.cls-23{fill:#090b0a;}.cls-24{fill:#000101;}.cls-25{fill:#f7f8f8;}.cls-26{fill:#eeefef;}.cls-27{fill:#131313;}.cls-28{fill:#010302;}.cls-29{fill:#0c0e0d;}.cls-30{fill:#121313;}.cls-31{fill:#121413;}.cls-32{fill:#fefefe;}.cls-33{fill:#111212;}.cls-34{fill:#111312;}.cls-35{fill:#101212;}.cls-36{fill:#101111;}.cls-37{fill:#111;}.cls-38{fill:#0e100f;}.cls-39{fill:#101211;}.cls-40{fill:#f0f1f1;}.cls-41{fill:#121514;}.cls-42{fill:#fbfbfb;}.cls-43{fill:#ececec;}.cls-44{fill:#f3f2f2;}.cls-45{fill:#f7f7f7;}.cls-46{fill:#050707;}.cls-47{fill:#f2f3f3;}.cls-48{fill:#f1f1f1;}.cls-49{fill:#f3f3f3;}.cls-50{fill:#090a09;}.cls-51{fill:#f2f3f2;}.cls-52{fill:#fff;}</style></defs><circle class="cls-1" cx="130" cy="130" r="183.85"/><path class="cls-2" d="M527,483v-9.54l-1.49-1.36H515V490a4.54,4.54,0,0,1,.86,1.17c1.14,7.8-.09,15.7.7,23.72,1.89-1.06,2.54-2.89,3.92-4,.31-.31.64-.6,1-.88.16-.15.33-.28.48-.43l.85-.89c.5-.62,1-1.25,1.49-1.86.23-.3.48-.58.73-.86s.22-.29.32-.43a4.15,4.15,0,0,0,.53-1.6,3.07,3.07,0,0,0-.37-1.67c-1.07-.61-2.12.06-3.19,0a6.66,6.66,0,0,1-4.77-1.56c-1.38-3.66-1.48-7.74.5-12.59,7,.26,14-1.21,21,.87,0,5.47-.09,10.94,0,16.41a8.78,8.78,0,0,1-2.39,6.5c-2,2.24-3.78,4.72-5.65,7.09l-.36.24-.43-.08a2.84,2.84,0,0,1-.6-.6l-.42,0h.43a6,6,0,0,0,.6.64.53.53,0,0,1-.22.77c-3.63,4.8-7.24,9.61-10.9,14.39-4.93,6.45-9.73,13-15.07,19.15-.24.28,0,1,0,1.46-2.61-2.67-2.26-6.27-2.29-9.39-.23-26-.15-52-.1-78a7.45,7.45,0,0,1,.88-4.34c3.81-1.67,7.81-.56,11.72-.71,5.39-.21,10.79-.06,16.19-.06-9-.1-18,.11-27-.13A1.51,1.51,0,0,1,503,460h1a225.66,225.66,0,0,1,34,0c1.35,0,1,1,1,1.76,0,6.75,0,13.49,0,20.24,0,2.25-1.8,1.48-2.86,1.44C533.09,483.32,530,484,527,483Z" transform="translate(-370 -355)"/><path class="cls-3" d="M525,432v1a25,25,0,0,0,0,8v1c.35.32.65.68,1,1s.68.65,1,1h4c.31-.36.71-.62,1-1h1l.57-.4.66.24A11.1,11.1,0,0,0,535,444l-6.29,11H471c-.58-.54-.37-1.48-1-2-.54-2.86-2.58-4.93-4-7.34-.69-1.21-1.32-2.46-2-3.66a1,1,0,0,1,1-.46,1.83,1.83,0,0,1,1,.46c.32.35.68.65,1,1h1c.3.37.69.64,1,1h4c.32-.35.67-.66,1-1a1.79,1.79,0,0,0,.49-1.28A.64.64,0,0,1,475,441c.28-.12.81-.23.81-.35.05-2.77.05-5.53,0-8.3,0-.12-.53-.23-.81-.35s-.37-.44-.28-.67.19-.33.28-.33v-3c3.42,4,6.19,8.49,10.61,11.91h5.83a13.61,13.61,0,0,0,4.92-7.58c.71-2.78,1.78-5.55,2.64-8.33.56-.54.85-1.63,2-1,1.09,4,1.89,8.08,3.9,11.85,1.39,2.6,2.7,4.95,5.71,5.93A23.78,23.78,0,0,0,524,429a.79.79,0,0,1,1.29.08C525.46,430.08,525.8,431.1,525,432Z" transform="translate(-370 -355)"/><path class="cls-3" d="M497,460v95.09c-5.65-7.16-11.19-13.84-16-21.09-1.83-2.85,2.32-4.79.27-8-3.33-1.29.69-4.47-.66-6.57,1.61-1.19,2.76-.4,3.9.19,1.38.1.2-.84.46-1.22-.15-2,1.54-2.83,2.51-4.19.09-12.26,0-24.55,0-36.84-.09,12.46.06,24.93-.1,38.29-3-2.11-2.78-4.31-2.79-6.33-.06-9.8,0-19.6-.05-29.4,0-2,.43-4-.78-5.8-1.31-1.12-3.41-.87-4.42-2.5-.93-3.63-1.65-7.24.63-10.67a.85.85,0,0,0,1-1,30.3,30.3,0,0,1,12,0h1A2.46,2.46,0,0,1,497,460Z" transform="translate(-370 -355)"/><path class="cls-3" d="M476,460l2,1c1.87,3.35.84,6.9.73,10.38-.65,1.77-2.82,1.69-3.78,3.09-1.13,9.65-.51,19.31-.31,29,.89,2.48,2.68,4.41,4,6.61a6.71,6.71,0,0,1,.51,1.59,9.72,9.72,0,0,1,.17,1.71c-.57,5.21,1.48,10.65-1.36,15.66h-1.28l-15.64-20.14V460.43c.59-.74,1.31-.3,1.92-.43A33.85,33.85,0,0,1,476,460Z" transform="translate(-370 -355)"/><path class="cls-4" d="M499,465v-1a2.63,2.63,0,0,1-.48-2c0-.7-.17-1.45.48-2-.06-.48.1-.82.63-.87,1.11.65-.66,2.66,1.37,2.87l.6.73a6,6,0,0,1,.36,1.86c.08,26.37,0,52.74,0,79.1,0,2.15.13,4.33-1,6.31,0,1,.34,2.06-1.25,2.33l1.44,1.28c-.55,1.11-1.1,2.22-1.75,3.51L499,556a2.65,2.65,0,0,1-.48-1.77v-1.9q0-41,0-81.94C498.54,468.6,498.08,466.73,499,465Z" transform="translate(-370 -355)"/><path class="cls-5" d="M539,489H518.11c0,1.89-.09,3.81-.11,5.74s0,3.94,0,6.26h7a1.38,1.38,0,0,1,2,0v4a13.48,13.48,0,0,0-1,1c-.35.32-.65.68-1,1l-1,2a13.48,13.48,0,0,0-1,1,13.48,13.48,0,0,0-1,1l-6.38,8a1.72,1.72,0,0,1-.41-.31.69.69,0,0,1-.2-.4q0-13.65,0-27.29c3.13,2.33.8,5.36,1.56,8.91-.16-4.2.29-7.56-.56-10.91a2.44,2.44,0,0,1,2-2,1.31,1.31,0,0,0,2,0,.72.72,0,0,1,1,0c4.19,1.07,8.46.24,12.69.53,1.77.12,3.61-.46,5.31.47Z" transform="translate(-370 -355)"/><path class="cls-6" d="M485,472c1.67.18,1,1.49,1,2.29,0,12.32,0,24.64.06,37,0,1.24-.48,2.6.84,4.23V473.73a1.55,1.55,0,0,1,1.71-.68c.77.84-.5.94-.53,1.42-.08,1.16-.05,2.33-.05,3.49q0,17.24,0,34.46c0,1.13.31,2.3-.26,3.37l-1.72.45V521a.65.65,0,0,1-1,0c-1.06-.89-2.61-.85-3.51-2-1.66,2.22.93,1.68,1.45,2.45-.29.77-1.06.44-1.75.78a7.26,7.26,0,0,0,0,3.56c.68.11.68.11,1.16-2.64.23.13.64.26.64.39,0,2.75,0,5.51,0,8.7l-1.54-1.18c-.79.88-.33,2-.46,3-1.5-.09-.85-1.24-1-2-1.82-5.26-.81-10.66-.82-16,.64-1.48,1.6-1.88,3-.85.83.13-.62,1.35.63,1.29a3,3,0,0,0,.71-1.06c.32-11.85,0-23.68.14-35.5,0-2.16-.24-4.34.43-6.46A7.75,7.75,0,0,1,485,472Z" transform="translate(-370 -355)"/><path class="cls-4" d="M503,460v2c.37.22.49.44.37.67s-.25.33-.37.33q0,44.12.07,88.22c0,1.2-1.21,3,.93,3.78v1.49c-.47.59-1,.67-2,.16V550c-.76-1-.5-2.21-.5-3.36q0-41,0-82.09v-1.87c0-.92-.16-1.87.49-2.68Z" transform="translate(-370 -355)"/><path class="cls-7" d="M499,465v89c-.33.46-.67.46-1,0q0-42.61.07-85.22C498.07,467.58,496.86,465.78,499,465Z" transform="translate(-370 -355)"/><path class="cls-8" d="M502,463v87h-1c.16-.63-.42-.83-.7-1.21-.08-.11-.26-.3-.23-.34.29-.38.89-.75.89-1.11q.06-42.18,0-84.34C501.33,462.54,501.67,462.54,502,463Z" transform="translate(-370 -355)"/><path class="cls-9" d="M501,423l-2,1v-2.48c-.57-1.11-2.64.12-2.51-1.25a7.31,7.31,0,0,1-.44-3.83c1-1.3,2.6-1.68,4-2.53l3.33,1.93c1,1.26.39,2.45.59,3.52a5.37,5.37,0,0,1-3,2.14Z" transform="translate(-370 -355)"/><path class="cls-10" d="M521.81,456.16c-15.84,1.14-31.73.42-47.59,1.15-.25,0-.47.44-.71.68-.59-.47-.66-1-.24-1.83Z" transform="translate(-370 -355)"/><path class="cls-11" d="M458,438c-.24,1.83-1.74.64-2.58,1.07-.62,1.12-.79,2.63-2.42,2.93.5-.82-2-1.32-.54-2.1L449.58,437c1.88-1.85,2-3.34.21-4.84,2.95-.52,2.76,1.77,3.74,2.8.69-1,.81-2.46,2.2-3,.65,0,1.35,0,1.27,1a11.16,11.16,0,0,0,1.32,3.84A1,1,0,0,1,458,438Z" transform="translate(-370 -355)"/><path d="M538,460H504c-.08-1,.59-1,1.27-1h8.41c2,0,4-.32,5.91.09s3.33-1.29,5.09-.3c.19.1.52-.88,1.41-.3a3.26,3.26,0,0,0,4.39-.43l1,.9,1-.94c.85.88,1.69,2,2.89-.24C535.74,459.5,537.83,458.25,538,460Z" transform="translate(-370 -355)"/><path class="cls-12" d="M525,429h-1c-.16-.62.41-.82,1-1.55-.91-1.07-2.75-2.06-1.64-4.34.77-1,2.38-1.3,4-2.33,1,1.28,2.82,1.93,2.82,3.24-.4,3.23-3.11,3.28-4.11,5C525.67,429.49,525.33,429.49,525,429Z" transform="translate(-370 -355)"/><path class="cls-12" d="M474.91,427.9c-2.89.62-3.79-1.29-4.79-2.46-.71-3.55,2.54-3,3.6-4.68a8.57,8.57,0,0,1,3.11,2.71C477.75,425.91,475.34,426.46,474.91,427.9Z" transform="translate(-370 -355)"/><path class="cls-13" d="M480,515v17c-1.7-.31-1-2.24-2-3V512C480.21,512,480.43,513.27,480,515Z" transform="translate(-370 -355)"/><path class="cls-14" d="M478,472V461c0-1.14,1.14-1.19,1.42-2.07.85.79.47,1.47.58,2.07v11c.35,1.2-.46,1.62-1.14,2.11C477.47,473.66,477.3,473,478,472Z" transform="translate(-370 -355)"/><path class="cls-15" d="M458,437h-1.8c-.08-1.4-1-2.86.8-4h2.82c.69,0,1.24.13,1.18,1a1.38,1.38,0,0,1,0,2C460.23,437,459.48,438.11,458,437Z" transform="translate(-370 -355)"/><path class="cls-16" d="M540.84,491.17c.15,5.2.28,10.41.47,15.61,0,.24.44.47.71.74l-1.46,1.34C539.78,508.61,539.62,499.18,540.84,491.17Z" transform="translate(-370 -355)"/><path class="cls-7" d="M539,488c-5.42,0-10.83,0-16.25,0-.72,0-1.74.35-1.75-1,5.42,0,10.83,0,16.25,0C538,487,539,486.66,539,488Z" transform="translate(-370 -355)"/><path class="cls-17" d="M539,436c-.32-1.29.42-2.09,1.44-2.91h3.5c-.19,1.35.89,2.84-.94,3.91A2.65,2.65,0,0,1,539,436Z" transform="translate(-370 -355)"/><path class="cls-18" d="M527,483h10.75c.68,0,1.32-.06,1.25-1h1v2c-.62-.16-.82.41-1.17.67-4.46-1.5-9.12-.11-13.7-.87l-.09-1.41C526.06,481.64,526.16,483.43,527,483Z" transform="translate(-370 -355)"/><path d="M476,460H463c1.75-1.06,3.09-1.63,4.34-1.07,1.43.64,2.49-1.13,3.69-.35s2.5.23,3.73.4C475.43,459.08,476.07,459.06,476,460Z" transform="translate(-370 -355)"/><path class="cls-13" d="M516,489c.28.12.81.22.81.35.1,3,.18,5.91.16,8.87,0,.93.45,2-.89,3.16-.14-3.1,0-5.86-.09-8.6,0-.73.37-1.77-1-1.78v-1A.85.85,0,0,0,516,489Z" transform="translate(-370 -355)"/><path class="cls-19" d="M458,437c1.27.49,1.94-.86,3-1-.15,2.2,1.39,3.12,3,4a.85.85,0,0,0,1,1,.63.63,0,0,1,.22.67c-.07.22-.14.33-.22.33h-1c-1.7-.65-2.61-2.22-3.84-3.4A2.71,2.71,0,0,0,458,438Z" transform="translate(-370 -355)"/><path d="M493,460H481a.76.76,0,0,1,.78-1q5.22-.06,10.44,0A.76.76,0,0,1,493,460Z" transform="translate(-370 -355)"/><path class="cls-20" d="M539,436a5.34,5.34,0,0,0,4,1c0,1.34-1,.94-1.75,1s-1.32.06-1.25,1l-2,1a.58.58,0,0,1-1,0c0-1,.83-1.34,1.38-1.82C539.12,437.53,539,436.78,539,436Z" transform="translate(-370 -355)"/><path class="cls-14" d="M475,441v1a.65.65,0,0,1-1,0c-.35-.22-.47-.44-.35-.67s.23-.33.35-.33c-.15-1.22.56-2.68-1.14-3.44,1.15-.54.95-1.71,1.77-2.77C475.3,437,474.87,439,475,441Z" transform="translate(-370 -355)"/><path class="cls-21" d="M525,441a.77.77,0,0,1-1-.78c0-2.15,0-4.29,0-6.44a.77.77,0,0,1,1-.78v1a2.43,2.43,0,0,1,0,3v1A2.46,2.46,0,0,1,525,441Z" transform="translate(-370 -355)"/><path class="cls-22" d="M534,443h-1v-1a.6.6,0,0,1-.25-.67c.08-.22.17-.33.25-.33a2.44,2.44,0,0,1,2-2,13.48,13.48,0,0,0,1,1,.74.74,0,0,1,.37.89,11.26,11.26,0,0,1-1.07,1.22A3.36,3.36,0,0,1,534,443Z" transform="translate(-370 -355)"/><path class="cls-23" d="M474,441v1c-.74,0-1.45-.11-2.12.56s-1.61.85-1.88-.56c.94.07.94-.57,1-1.24a.78.78,0,0,1,1-.76c.59.07.67.66,1,1Z" transform="translate(-370 -355)"/><path class="cls-24" d="M497,460h-3a2.48,2.48,0,0,1,4,0Z" transform="translate(-370 -355)"/><path class="cls-13" d="M525,437v-3C526.37,435,526.37,436,525,437Z" transform="translate(-370 -355)"/><path class="cls-13" d="M525,441v-3C526.37,439,526.37,440,525,441Z" transform="translate(-370 -355)"/><ellipse class="cls-21" cx="155.5" cy="75.5" rx="0.71" ry="2.12"/><path class="cls-7" d="M475,431v3.18C473.77,432.31,473.77,432.31,475,431Z" transform="translate(-370 -355)"/><path class="cls-8" d="M502,460v2a.6.6,0,0,1-1,0c0-.82,0-1.64,0-2.45,0-.13.2-.24.31-.37C502,459.11,502,459.51,502,460Z" transform="translate(-370 -355)"/><path class="cls-23" d="M470,442l-1.68-.12c-.45-.74-.49-1.29,0-1.79A2.69,2.69,0,0,1,470,442Z" transform="translate(-370 -355)"/><path class="cls-25" d="M534,443a.85.85,0,0,1,1-1,.58.58,0,0,1,1,0,.85.85,0,0,1-1,1A.61.61,0,0,1,534,443Z" transform="translate(-370 -355)"/><path class="cls-18" d="M540,482c.12-.61-.29-1.31.36-1.86,1.16.28.43,1.25.64,1.86Z" transform="translate(-370 -355)"/><path class="cls-24" d="M499,460v2c-.33.46-.67.46-1,0v-2Z" transform="translate(-370 -355)"/><path class="cls-7" d="M520,487c.07.94-.57,1.06-1.24,1a.78.78,0,0,1-.76-1Z" transform="translate(-370 -355)"/><path class="cls-26" d="M536,442h-1a.85.85,0,0,1,1-1c.33-.42.67-.42,1,0A.85.85,0,0,1,536,442Z" transform="translate(-370 -355)"/><path class="cls-14" d="M473,441a.85.85,0,0,1-1-1l.35-.87C473.51,439.43,472.79,440.38,473,441Z" transform="translate(-370 -355)"/><path class="cls-23" d="M461,436v-2c.94-.07,1.06.57,1,1.24A.78.78,0,0,1,461,436Z" transform="translate(-370 -355)"/><path class="cls-22" d="M528.93,441.52c.77-.71,1.33-.67,2-.18C530.5,442.44,529.86,442.14,528.93,441.52Z" transform="translate(-370 -355)"/><path class="cls-27" d="M470,453c1.5.09.85,1.24,1,2C469.5,454.91,470.15,453.76,470,453Z" transform="translate(-370 -355)"/><path class="cls-21" d="M526,432c.76.15,1.91-.5,2,1C527.24,432.85,526.09,433.5,526,432Z" transform="translate(-370 -355)"/><path class="cls-7" d="M498,462h1v2C497.5,463.91,498.15,462.76,498,462Z" transform="translate(-370 -355)"/><path class="cls-28" d="M540.5,463a1.21,1.21,0,0,1,0,2A1.21,1.21,0,0,1,540.5,463Z" transform="translate(-370 -355)"/><path class="cls-19" d="M537,441h-1v-1h2A.85.85,0,0,1,537,441Z" transform="translate(-370 -355)"/><path class="cls-7" d="M458,440.46c-.74.82-1.3.54-2,.32C456.5,439.56,457.14,439.86,458,440.46Z" transform="translate(-370 -355)"/><path class="cls-29" d="M536,440a.85.85,0,0,1-1-1A.85.85,0,0,1,536,440Z" transform="translate(-370 -355)"/><path class="cls-30" d="M540,439a.71.71,0,0,1,.89.6c0,.07-.22.31-.29.29A.71.71,0,0,1,540,439Z" transform="translate(-370 -355)"/><path class="cls-31" d="M464,446.5c.32-.47.66-.47,1,0C464.67,447,464.33,447,464,446.5Z" transform="translate(-370 -355)"/><path class="cls-32" d="M534,443h1v1A.85.85,0,0,1,534,443Z" transform="translate(-370 -355)"/><path class="cls-22" d="M532,443a.85.85,0,0,1-1,1A.85.85,0,0,1,532,443Z" transform="translate(-370 -355)"/><path class="cls-21" d="M527,444a.85.85,0,0,1-1-1A.85.85,0,0,1,527,444Z" transform="translate(-370 -355)"/><path class="cls-23" d="M474,443a.85.85,0,0,1-1,1A.85.85,0,0,1,474,443Z" transform="translate(-370 -355)"/><path class="cls-11" d="M453,442a.71.71,0,0,1-.6.89c-.07,0-.31-.22-.29-.29A.71.71,0,0,1,453,442Z" transform="translate(-370 -355)"/><path class="cls-23" d="M469,444a.85.85,0,0,1-1-1A.85.85,0,0,1,469,444Z" transform="translate(-370 -355)"/><path class="cls-33" d="M495,423.5c.32-.47.66-.47,1,0C495.67,424,495.33,424,495,423.5Z" transform="translate(-370 -355)"/><path class="cls-21" d="M526,443a.85.85,0,0,1-1-1A.85.85,0,0,1,526,443Z" transform="translate(-370 -355)"/><path class="cls-23" d="M474,442h1a.85.85,0,0,1-1,1Z" transform="translate(-370 -355)"/><path class="cls-23" d="M467,443a.85.85,0,0,1-1-1A.85.85,0,0,1,467,443Z" transform="translate(-370 -355)"/><path class="cls-34" d="M458.5,431c-.47-.32-.47-.66,0-1C459,430.33,459,430.67,458.5,431Z" transform="translate(-370 -355)"/><path class="cls-35" d="M522,430.5c-.32.47-.66.47-1,0C521.33,430,521.67,430,522,430.5Z" transform="translate(-370 -355)"/><path class="cls-18" d="M541,482a.71.71,0,0,1,.89.6c0,.07-.22.31-.29.29A.71.71,0,0,1,541,482Z" transform="translate(-370 -355)"/><path class="cls-18" d="M540,484a.71.71,0,0,1,.89.6c0,.07-.22.31-.29.29A.71.71,0,0,1,540,484Z" transform="translate(-370 -355)"/><path class="cls-7" d="M521,487h-1c0-.49.06-.93.66-.79C520.83,486.24,520.89,486.72,521,487Z" transform="translate(-370 -355)"/><path class="cls-21" d="M528,433a.71.71,0,0,1,.89.6c0,.07-.22.31-.29.29A.71.71,0,0,1,528,433Z" transform="translate(-370 -355)"/><path class="cls-36" d="M497,422.5c.32-.47.66-.47,1,0C497.67,423,497.33,423,497,422.5Z" transform="translate(-370 -355)"/><path class="cls-37" d="M489.5,436c.47.32.47.66,0,1C489,436.67,489,436.33,489.5,436Z" transform="translate(-370 -355)"/><path class="cls-38" d="M533,441v1c-.49,0-.93-.06-.79-.66C532.24,441.17,532.72,441.11,533,441Z" transform="translate(-370 -355)"/><path class="cls-22" d="M528,436.5c.32-.47.66-.47,1,0C528.67,437,528.33,437,528,436.5Z" transform="translate(-370 -355)"/><path class="cls-31" d="M531,437c0-.49.06-.93.66-.79.17,0,.23.51.34.79A.6.6,0,0,1,531,437Z" transform="translate(-370 -355)"/><path class="cls-23" d="M465,442v-1a.85.85,0,0,1,1,1Z" transform="translate(-370 -355)"/><path class="cls-39" d="M463.5,437c.47.32.47.66,0,1C463,437.67,463,437.33,463.5,437Z" transform="translate(-370 -355)"/><path class="cls-37" d="M512.5,437c.47.32.47.66,0,1C512,437.67,512,437.33,512.5,437Z" transform="translate(-370 -355)"/><path class="cls-22" d="M531,437h1v1A.85.85,0,0,1,531,437Z" transform="translate(-370 -355)"/><path class="cls-22" d="M532,438c.49,0,.93.06.79.66,0,.17-.51.23-.79.34Z" transform="translate(-370 -355)"/><path class="cls-23" d="M464,440a.71.71,0,0,1,.6-.89c.07,0,.31.22.29.29A.71.71,0,0,1,464,440Z" transform="translate(-370 -355)"/><path class="cls-40" d="M530,519h1a.85.85,0,0,1-1,1Z" transform="translate(-370 -355)"/><path class="cls-23" d="M466.5,440c-.47-.32-.47-.66,0-1C467,439.33,467,439.67,466.5,440Z" transform="translate(-370 -355)"/><path class="cls-37" d="M527,526.5c.32-.47.66-.47,1,0C527.67,527,527.33,527,527,526.5Z" transform="translate(-370 -355)"/><path class="cls-22" d="M532,439a.71.71,0,0,1-.6.89c-.07,0-.31-.22-.29-.29A.71.71,0,0,1,532,439Z" transform="translate(-370 -355)"/><path class="cls-41" d="M480,536.5c.32-.47.66-.47,1,0C480.67,537,480.33,537,480,536.5Z" transform="translate(-370 -355)"/><path class="cls-21" d="M527.5,440c.47.32.47.66,0,1C527,440.67,527,440.33,527.5,440Z" transform="translate(-370 -355)"/><path class="cls-24" d="M498,554h1v1a.65.65,0,0,1-1,0Z" transform="translate(-370 -355)"/><path class="cls-7" d="M498,555h1v1A.85.85,0,0,1,498,555Z" transform="translate(-370 -355)"/><path class="cls-42" d="M503,463v-1h30.9c-1.72.52-.66.16-1.08.67-.1.13-.24.32-.36.32Z" transform="translate(-370 -355)"/><path class="cls-43" d="M527,501h-2c-.07-.94.57-1.06,1.24-1A.78.78,0,0,1,527,501Z" transform="translate(-370 -355)"/><path class="cls-44" d="M514,470.5c.32-.47.66-.47,1,0C514.67,471,514.33,471,514,470.5Z" transform="translate(-370 -355)"/><path class="cls-43" d="M526,506a.85.85,0,0,1,1-1A.85.85,0,0,1,526,506Z" transform="translate(-370 -355)"/><path class="cls-43" d="M525,507a.85.85,0,0,1,1-1A.85.85,0,0,1,525,507Z" transform="translate(-370 -355)"/><path class="cls-17" d="M536.5,509c-.47-.32-.47-.66,0-1C537,508.33,537,508.67,536.5,509Z" transform="translate(-370 -355)"/><path class="cls-43" d="M523,510a.85.85,0,0,1,1-1A.85.85,0,0,1,523,510Z" transform="translate(-370 -355)"/><path class="cls-43" d="M522,511a.85.85,0,0,1,1-1A.85.85,0,0,1,522,511Z" transform="translate(-370 -355)"/><path class="cls-40" d="M529,518a.71.71,0,0,1-.89-.6c0-.07.22-.31.29-.29A.71.71,0,0,1,529,518Z" transform="translate(-370 -355)"/><path class="cls-40" d="M530,519a.85.85,0,0,1-1-1A.85.85,0,0,1,530,519Z" transform="translate(-370 -355)"/><path class="cls-45" d="M522.92,439.86v2.29a3.25,3.25,0,0,1-1.78-2Z" transform="translate(-370 -355)"/><path class="cls-17" d="M502.5,434c.47.32.47.66,0,1C502,434.67,502,434.33,502.5,434Z" transform="translate(-370 -355)"/><path class="cls-46" d="M478,472c.11.6-.27,1.28.34,1.85A2.48,2.48,0,0,0,480,472h5v1a1.86,1.86,0,0,0-.66,2.24,8.4,8.4,0,0,1,.14,2.24c0,11.57,0,23.12,0,34.66,0,1.72.65,3.73-1.46,4.86h-1v-2h-2c-1-.76-.3-2.69-2-3v-1a1,1,0,0,0,.43-.82c0-.12-.2-.18-.43-.18-2.27-.91-3.06-3-4-5a1.88,1.88,0,0,1-.44-1.62c.19-.75.8-1.29,1-2,0-.81-.15-1.61-.16-2.42a12.66,12.66,0,0,1,.15-1.38c.4-7.23-.26-14.46.38-21.66a4.39,4.39,0,0,0-.68-2.33c-.08-.18-.15-.37-.23-.55-.06-.87.49-1,1.18-1Z" transform="translate(-370 -355)"/><path class="cls-47" d="M496,462.5c-.32.47-.66.47-1,0C495.33,462,495.67,462,496,462.5Z" transform="translate(-370 -355)"/><path class="cls-48" d="M485,521h1c0,.49-.06.93-.66.79C485.17,521.76,485.11,521.28,485,521Z" transform="translate(-370 -355)"/><path class="cls-49" d="M488,522.5c-.32.47-.66.47-1,0C487.33,522,487.67,522,488,522.5Z" transform="translate(-370 -355)"/><path class="cls-48" d="M482.5,533c.47.32.47.66,0,1C482,533.67,482,533.33,482.5,533Z" transform="translate(-370 -355)"/><path class="cls-50" d="M475,500c1.5.09.85,1.24,1,2-.55.57-1.47.39-2,1v2a.76.76,0,0,1-1-.79q0-15.21,0-30.42a.76.76,0,0,1,1-.79c1.65,2.05.93,4.48,1,6.74C475.07,486.49,475,493.25,475,500Z" transform="translate(-370 -355)"/><path class="cls-13" d="M478,510c.25-1.4,1-1.17,1.92-.61-.51.71-.94,1.49-1.92,1.61Z" transform="translate(-370 -355)"/><path class="cls-51" d="M475.5,523c.47.32.47.66,0,1C475,523.67,475,523.33,475.5,523Z" transform="translate(-370 -355)"/><circle class="cls-1" cx="131.5" cy="107.5" r="0.71"/><path d="M521.18,502.54a4.67,4.67,0,0,1,4.11-.15C523.7,503.37,522.42,502.94,521.18,502.54Z" transform="translate(-370 -355)"/><path class="cls-37" d="M524.5,504c.47.32.47.66,0,1C524,504.67,524,504.33,524.5,504Z" transform="translate(-370 -355)"/><path class="cls-36" d="M522,508.5c-.32.47-.66.47-1,0C521.33,508,521.67,508,522,508.5Z" transform="translate(-370 -355)"/><path class="cls-18" d="M483,517c1.16-1.35,1-3,1-4.58q0-18.7,0-37.42a9.44,9.44,0,0,0-1-1c.09-1.5,1.24-.85,2-1v45.94A2.56,2.56,0,0,1,483,517Z" transform="translate(-370 -355)"/><path class="cls-3" d="M481.52,526.86a2.89,2.89,0,0,1,0,3.27A2.89,2.89,0,0,1,481.52,526.86Z" transform="translate(-370 -355)"/><path class="cls-3" d="M482,517a.71.71,0,0,1-.6.89c-.07,0-.31-.22-.29-.29A.71.71,0,0,1,482,517Z" transform="translate(-370 -355)"/><path d="M475,500l-.36.88c-.22-.16-.61-.31-.61-.46q0-13.71,0-27.42c.76.15,1.91-.5,2,1-1.1,6.2-.2,12.46-.53,18.69-.11,2.1.51,4.27-.47,6.31Z" transform="translate(-370 -355)"/><path class="cls-50" d="M475,499c0-7.58,0-15.16,0-22.74,0-.8-.69-2.09,1-2.26l.85.35c-1.21,1.32-.84,2.95-.84,4.49,0,6.13,0,12.26,0,18.38C476,497.94,476.37,499,475,499Z" transform="translate(-370 -355)"/><path class="cls-50" d="M478.68,501.94c-1-.59-1.8-1.15-1.68-2.42C478.58,500.1,478.58,500.1,478.68,501.94Z" transform="translate(-370 -355)"/><path d="M474,503c.09-1.5,1.24-.85,2-1C475.91,503.5,474.76,502.85,474,503Z" transform="translate(-370 -355)"/><path class="cls-37" d="M483,474a.85.85,0,0,1,1,1A.85.85,0,0,1,483,474Z" transform="translate(-370 -355)"/><path class="cls-52" d="M434.16,564.52h18v3.41h-18Zm7.22,2.09H445v23.46h-3.59Z" transform="translate(-370 -355)"/><path class="cls-52" d="M455.87,589.39a6.32,6.32,0,0,1-2.74-2.79,9.58,9.58,0,0,1-.94-4.44v-2a10.68,10.68,0,0,1,.91-4.63,6.46,6.46,0,0,1,2.62-2.91,8.13,8.13,0,0,1,4.15-1,6.62,6.62,0,0,1,3.91,1.15,7.15,7.15,0,0,1,2.47,3.3,14.32,14.32,0,0,1,.85,5.19v1.19H454.79v-2.88h8.9a6.16,6.16,0,0,0-1.15-3.47,3.24,3.24,0,0,0-2.67-1.24,3.86,3.86,0,0,0-3.15,1.33,5.74,5.74,0,0,0-1.12,3.78v2.32a4.71,4.71,0,0,0,1.2,3.48,4.52,4.52,0,0,0,3.39,1.22,5.67,5.67,0,0,0,2.16-.44,6.06,6.06,0,0,0,1.92-1.23l2.35,2.35a9.91,9.91,0,0,1-3,2,8.7,8.7,0,0,1-3.39.71A9.13,9.13,0,0,1,455.87,589.39Z" transform="translate(-370 -355)"/><path class="cls-52" d="M475.12,589.41a6.31,6.31,0,0,1-2.7-2.71,9.12,9.12,0,0,1-.93-4.29v-3a8.93,8.93,0,0,1,.93-4.23,6.24,6.24,0,0,1,2.7-2.68,9.05,9.05,0,0,1,4.26-.93,10.17,10.17,0,0,1,2.69.35,8.05,8.05,0,0,1,2.25,1,6,6,0,0,1,1.67,1.58l-2.58,2.32a5.54,5.54,0,0,0-1.81-1.35,5.08,5.08,0,0,0-2.16-.48,4.32,4.32,0,0,0-3.22,1.16,4.49,4.49,0,0,0-1.14,3.27v3a4.66,4.66,0,0,0,1.13,3.34,4.26,4.26,0,0,0,3.23,1.18,4.88,4.88,0,0,0,2.18-.51,5.28,5.28,0,0,0,1.79-1.44l2.58,2.49a6.43,6.43,0,0,1-1.68,1.56,7.8,7.8,0,0,1-2.26,1,10.07,10.07,0,0,1-2.67.34A9.05,9.05,0,0,1,475.12,589.41Z" transform="translate(-370 -355)"/><path class="cls-52" d="M490,564.52h3.59v25.55H490ZM501,579a4.16,4.16,0,0,0-1-3,3.7,3.7,0,0,0-2.81-1.06,3.79,3.79,0,0,0-2.72.92,3.39,3.39,0,0,0-.95,2.58l-.37-3.51a6.44,6.44,0,0,1,2.2-2.51,5.45,5.45,0,0,1,3-.89,5.63,5.63,0,0,1,4.59,2,8.27,8.27,0,0,1,1.63,5.49v11.07H501Z" transform="translate(-370 -355)"/><path class="cls-52" d="M520.08,564.52h3.58v25.55h-3.58Zm1.84,12.23h8.18a3.84,3.84,0,0,0,2-.54,3.68,3.68,0,0,0,1.36-1.55,5.8,5.8,0,0,0,0-4.62,3.7,3.7,0,0,0-1.36-1.56,3.76,3.76,0,0,0-2-.55h-8.18v-3.41H530a8.09,8.09,0,0,1,4,1,6.81,6.81,0,0,1,2.7,2.75,9.28,9.28,0,0,1,0,8.22,6.7,6.7,0,0,1-2.7,2.73,8.09,8.09,0,0,1-4,1h-8.05Z" transform="translate(-370 -355)"/><path class="cls-52" d="M545.84,589.16a8,8,0,0,1-3.12-3.34,10.81,10.81,0,0,1-1.11-5v-7a10.81,10.81,0,0,1,1.11-5,8.08,8.08,0,0,1,3.12-3.35,9,9,0,0,1,4.67-1.19,8.86,8.86,0,0,1,4,.94,8.5,8.5,0,0,1,3.08,2.67,9.8,9.8,0,0,1,1.68,4h-3.67a5.71,5.71,0,0,0-1.12-2.14,5.42,5.42,0,0,0-1.83-1.45,4.94,4.94,0,0,0-6.75,2.36,7.23,7.23,0,0,0-.65,3.18v7a7.17,7.17,0,0,0,.65,3.16,4.93,4.93,0,0,0,1.82,2.12,5,5,0,0,0,2.75.75,5.28,5.28,0,0,0,2.18-.47,5.18,5.18,0,0,0,1.83-1.41,5.55,5.55,0,0,0,1.12-2.22h3.67a9.8,9.8,0,0,1-1.68,4,8.62,8.62,0,0,1-7.12,3.61A9,9,0,0,1,545.84,589.16Z" transform="translate(-370 -355)"/></svg>